<?xml version="1.0" standalone="no"?>
<!DOCTYPE svg PUBLIC "-//W3C//DTD SVG 20010904//EN"
 "http://www.w3.org/TR/2001/REC-SVG-20010904/DTD/svg10.dtd">
<svg version="1.0" xmlns="http://www.w3.org/2000/svg"
 width="400.000000pt" height="700.000000pt" viewBox="0 0 400.000000 700.000000"
 preserveAspectRatio="xMidYMid meet">

<g transform="translate(0.000000,700.000000) scale(0.100000,-0.100000)"
fill="#000000" stroke="none">
<path d="M603 6310 c-13 -5 -23 -14 -23 -19 0 -10 236 -490 245 -499 3 -3 11
1 19 7 16 13 14 20 -24 106 -10 22 -32 74 -49 115 -18 41 -37 86 -43 100 -7
14 -28 63 -48 109 -20 47 -40 86 -45 87 -6 2 -20 -1 -32 -6z"/>
<path d="M745 6277 c-17 -13 -17 -16 3 -73 23 -67 64 -168 93 -231 10 -24 19
-47 19 -53 0 -6 11 -33 25 -60 18 -35 31 -50 45 -50 17 0 19 4 14 28 -4 15
-13 42 -20 59 -7 18 -29 81 -49 140 -92 272 -90 268 -130 240z"/>
<path d="M1018 5814 c-33 -17 -34 -21 -11 -46 9 -10 18 -42 21 -73 4 -50 7
-55 28 -55 14 0 41 16 65 40 23 22 52 43 65 46 39 10 32 31 -24 77 -39 31 -99
36 -144 11z m103 -21 c-8 -15 -10 -15 -11 -2 0 17 10 32 18 25 2 -3 -1 -13 -7
-23z m44 -13 c8 -13 -12 -40 -29 -40 -6 0 -3 5 7 11 21 12 23 33 1 25 -8 -3
-12 -2 -9 4 8 13 22 13 30 0z"/>
<path d="M946 5626 c3 -9 2 -16 -4 -16 -6 0 -13 6 -15 13 -3 8 -14 1 -31 -18
-51 -58 -51 -63 2 -69 115 -13 222 -17 222 -8 0 19 -72 82 -94 82 -8 0 -16 4
-18 9 -1 5 -18 12 -35 16 -28 5 -32 4 -27 -9z"/>
<path d="M1360 5630 c0 -5 5 -10 11 -10 5 0 7 -5 4 -10 -4 -6 -12 -4 -21 5
-19 18 -21 18 -40 3 -37 -31 -54 -53 -54 -70 0 -25 18 -23 108 11 42 16 85 31
95 35 26 8 13 23 -31 36 -47 13 -72 13 -72 0z"/>
<path d="M785 5261 c-3 -6 -30 -11 -58 -11 -37 0 -48 -3 -37 -10 8 -5 26 -10
40 -10 36 -1 60 -22 53 -48 -4 -16 -1 -22 11 -22 10 0 16 9 16 25 0 18 5 25
20 25 11 0 20 -4 20 -10 0 -5 -7 -10 -15 -10 -8 0 -15 -7 -15 -15 0 -10 11
-15 35 -15 32 0 35 3 35 29 0 16 -6 32 -12 34 -7 3 -2 6 12 6 14 1 32 6 40 12
11 8 8 9 -15 4 -27 -5 -62 2 -106 20 -10 3 -20 2 -24 -4z"/>
<path d="M727 5213 c-11 -10 -8 -53 3 -53 9 0 30 40 30 56 0 7 -26 5 -33 -3z"/>
<path d="M610 5145 c0 -2 31 -14 70 -25 85 -25 215 -28 280 -6 45 15 45 15 10
14 -19 -1 -75 1 -125 5 -168 13 -235 17 -235 12z"/>
<path d="M667 5049 c-4 -28 -4 -55 -2 -59 3 -4 42 -10 87 -14 46 -4 104 -10
131 -13 l47 -6 0 61 0 60 -39 -5 c-34 -5 -129 7 -197 23 -19 5 -22 0 -27 -47z
m53 17 c0 -3 -4 -8 -10 -11 -5 -3 -10 -1 -10 4 0 6 5 11 10 11 6 0 10 -2 10
-4z m100 -42 c0 -32 -2 -35 -27 -32 -14 2 -28 10 -30 18 -4 12 -3 13 5 1 13
-19 42 -6 42 18 0 12 -8 21 -22 24 -20 4 -19 4 5 6 25 1 27 -2 27 -35z m75 26
c8 -13 -15 -13 -35 0 -12 8 -11 10 7 10 12 0 25 -4 28 -10z m-155 -42 c0 -4
-11 -8 -25 -8 -14 0 -25 4 -25 10 0 5 11 9 25 8 14 -1 25 -6 25 -10z m150 -18
c13 -9 13 -10 0 -10 -8 0 -22 5 -30 10 -13 9 -13 10 0 10 8 0 22 -5 30 -10z"/>
<path d="M2710 5026 c-41 -15 -50 -48 -26 -98 18 -36 20 -60 6 -74 -5 -5 -12
-84 -15 -174 -5 -154 -13 -271 -20 -278 -5 -5 -49 20 -57 31 -4 6 -5 23 -3 39
4 32 5 31 -30 18 -20 -8 -29 -6 -46 11 -11 11 -31 24 -45 29 -27 11 -44 42
-26 48 7 2 12 15 12 28 0 32 17 64 33 64 20 0 44 23 52 48 5 19 3 22 -20 22
-27 0 -85 -53 -85 -77 0 -26 -18 -12 -25 20 -13 53 -13 91 1 114 19 30 83 47
131 34 26 -7 39 -7 44 0 8 14 22 160 15 166 -3 3 -52 -1 -109 -8 -82 -10 -125
-10 -198 -1 -51 6 -94 10 -95 9 -2 -2 2 -24 34 -177 20 -93 38 -191 83 -442
l22 -127 68 -16 c126 -28 260 -10 279 39 4 11 16 120 25 241 9 121 20 258 25
305 19 178 21 220 13 219 -4 0 -24 -6 -43 -13z"/>
<path d="M2563 4694 c-8 -23 -21 -35 -47 -44 -30 -10 -36 -16 -36 -41 0 -34
17 -37 52 -9 30 23 51 69 46 102 -3 21 -4 21 -15 -8z"/>
<path d="M3515 4299 c-172 -19 -314 -42 -342 -57 -27 -15 -90 -85 -98 -111 -3
-12 -10 -21 -15 -21 -13 0 -32 -104 -28 -152 l3 -42 -50 -12 c-28 -7 -79 -20
-114 -29 -88 -22 -115 -38 -149 -88 -54 -79 -72 -126 -72 -194 0 -50 5 -71 24
-101 32 -50 74 -87 115 -101 43 -14 148 -14 192 0 19 6 41 13 49 16 8 2 15 3
16 1 0 -2 8 3 16 10 14 11 122 51 141 52 4 0 14 -18 23 -40 41 -103 206 -152
326 -96 18 8 73 29 122 45 49 17 94 35 100 40 6 4 29 14 51 21 22 7 61 23 87
36 43 22 47 27 58 77 7 30 11 84 8 120 -3 54 -10 74 -35 109 -30 43 -133 116
-165 117 -15 1 -14 6 7 44 44 81 50 171 16 236 -20 36 -82 101 -112 117 -30
15 -51 15 -174 3z m-200 -58 c11 -5 33 -4 48 2 33 11 77 -4 77 -27 0 -7 7 -16
15 -20 31 -11 55 -69 55 -129 0 -49 -5 -66 -32 -105 -72 -106 -141 -162 -198
-162 -48 1 -142 29 -154 46 -7 9 -18 14 -24 10 -18 -11 -43 23 -36 50 3 13 2
24 -3 24 -11 0 -10 96 0 107 4 3 7 13 7 22 0 8 20 45 45 82 39 58 50 68 90 79
25 7 48 17 51 21 6 11 32 10 59 0z m285 -31 c0 -5 -6 -10 -14 -10 -8 0 -18 5
-21 10 -3 6 3 10 14 10 12 0 21 -4 21 -10z m-586 -346 c9 -3 16 -13 16 -20 0
-8 9 -18 19 -22 11 -4 32 -24 49 -44 37 -48 42 -114 11 -178 -40 -84 -82 -140
-128 -169 -42 -27 -51 -29 -111 -24 -36 3 -76 13 -90 21 -14 9 -31 15 -38 14
-23 -5 -44 20 -37 45 4 16 1 25 -10 29 -10 4 -13 14 -9 30 4 14 1 31 -6 40
-10 11 -10 18 -2 26 7 7 12 23 12 38 0 14 15 52 33 85 39 72 105 115 172 113
22 -1 49 4 60 10 23 13 37 15 59 6z m563 -83 c3 -11 16 -22 29 -25 13 -4 24
-11 24 -16 0 -6 10 -20 22 -32 29 -29 36 -116 12 -167 -43 -95 -92 -157 -147
-187 -34 -18 -170 -10 -188 12 -6 8 -22 14 -34 14 -27 0 -48 22 -40 42 3 8 0
20 -7 26 -8 7 -13 34 -12 77 1 53 7 79 34 134 30 62 38 71 94 101 47 24 70 31
92 26 16 -3 36 -2 44 4 26 17 71 12 77 -9z m334 -65 c-12 -15 -57 -27 -66 -18
-6 6 42 30 64 31 10 1 11 -2 2 -13z"/>
<path d="M3263 4124 c2 -32 -19 -43 -28 -15 -8 26 -20 26 -44 2 -26 -26 -45
-92 -37 -124 7 -29 62 -67 97 -67 30 0 88 20 115 40 26 19 68 104 61 123 -4
10 -14 13 -33 9 -22 -4 -26 -2 -21 12 10 27 0 18 -23 -19 -18 -29 -28 -35 -56
-35 -38 0 -41 5 -18 31 11 12 14 27 10 44 -8 33 -25 32 -23 -1z"/>
<path d="M2865 3751 c-3 -5 -1 -12 5 -16 16 -10 12 -35 -5 -35 -9 0 -18 7 -21
15 -15 38 -63 -12 -71 -74 -6 -47 8 -76 50 -97 43 -23 89 -20 134 9 47 30 57
42 72 89 16 49 7 82 -18 68 -10 -5 -21 -7 -24 -3 -4 3 -20 -8 -36 -26 -18 -19
-39 -31 -55 -31 -31 0 -33 9 -8 36 15 15 17 24 8 46 -11 29 -21 35 -31 19z"/>
<path d="M3430 3665 c13 -33 -8 -45 -30 -17 -15 18 -19 19 -37 7 -28 -19 -48
-100 -33 -134 13 -32 61 -61 101 -61 32 0 98 31 122 58 22 24 42 105 32 128
-5 12 -9 15 -12 7 -3 -7 -17 -13 -31 -13 -19 0 -30 -7 -37 -22 -7 -17 -20 -24
-49 -26 l-38 -3 20 28 c14 20 17 34 11 51 -5 12 -13 22 -18 22 -7 0 -7 -9 -1
-25z"/>
<path d="M3530 3682 c0 -5 7 -9 15 -9 8 0 12 4 9 9 -3 4 -9 8 -15 8 -5 0 -9
-4 -9 -8z"/>
<path d="M1530 3504 c0 -4 8 -13 18 -20 16 -12 16 -14 -4 -41 -12 -15 -26 -28
-32 -28 -6 0 -14 -4 -19 -9 -5 -5 -3 -6 5 -2 6 4 12 4 12 -1 -1 -14 -94 -54
-128 -55 -40 -1 -42 -17 -2 -24 17 -4 30 -12 30 -18 0 -20 -39 -36 -123 -51
-97 -17 -107 -18 -87 -5 12 8 9 10 -12 10 -46 0 -77 -16 -71 -38 4 -18 -6 -22
-85 -41 -109 -26 -123 -26 -115 -5 5 14 1 16 -33 9 -21 -3 -56 -7 -76 -8 -21
0 -38 -5 -38 -9 0 -4 5 -8 10 -8 6 0 10 -5 10 -11 0 -6 -21 -10 -52 -9 -29 1
-70 -2 -90 -8 -53 -14 -89 -5 -121 31 l-28 32 2 -35 c3 -46 -6 -60 -40 -60
-34 0 -136 74 -136 99 0 10 -21 35 -47 54 -45 34 -48 35 -58 17 -16 -29 -12
-92 8 -121 9 -14 32 -41 51 -59 31 -32 35 -33 65 -21 17 7 40 15 51 18 28 6
59 -29 53 -61 l-5 -24 56 29 c71 37 115 38 138 3 13 -21 14 -30 5 -45 -17 -27
-16 -29 27 -29 43 0 59 13 42 34 -7 8 -7 24 -1 48 17 60 104 87 170 53 28 -15
37 -37 31 -82 -2 -16 40 -17 92 -2 32 9 52 29 29 29 -18 0 -32 49 -21 74 23
50 179 105 215 75 24 -19 18 -75 -11 -97 -34 -27 -32 -32 14 -32 32 0 44 6 65
31 14 17 26 36 26 44 0 7 7 18 15 25 13 10 19 9 35 -5 26 -23 37 -12 20 20
-12 23 -11 28 10 50 28 30 84 34 98 8 6 -10 16 -14 27 -10 23 9 14 30 -16 37
-16 4 -20 8 -11 14 6 4 12 18 12 31 0 26 42 65 71 65 23 0 69 60 69 89 0 17
-4 21 -19 16 -20 -6 -71 13 -71 27 0 4 -7 8 -15 8 -8 0 -15 -3 -15 -6z"/>
<path d="M1367 3478 c-12 -41 -8 -58 12 -58 30 0 35 18 13 51 -19 31 -19 31
-25 7z"/>
<path d="M1658 3400 c-18 -32 -14 -37 15 -16 17 13 24 46 10 46 -5 0 -16 -14
-25 -30z"/>
<path d="M1140 3330 c-9 -16 -8 -18 5 -14 8 4 15 12 15 20 0 20 -7 17 -20 -6z"/>
<path d="M887 3273 c-4 -3 -7 -11 -7 -17 0 -6 5 -5 12 2 6 6 9 14 7 17 -3 3
-9 2 -12 -2z"/>
<path d="M428 3230 c-18 -40 -15 -51 8 -28 9 8 14 26 12 39 -4 22 -6 22 -20
-11z"/>
<path d="M3025 2840 c-25 -16 -26 -20 -12 -26 20 -7 70 22 62 36 -9 14 -16 12
-50 -10z"/>
<path d="M3076 2810 c-38 -12 -76 -49 -76 -75 0 -48 121 -74 176 -39 92 61 15
148 -100 114z m74 -34 c0 -15 -37 -32 -47 -22 -3 3 -3 12 0 21 8 19 47 20 47
1z"/>
<path d="M3266 2771 c-3 -5 2 -18 12 -30 12 -15 21 -18 32 -12 12 8 12 13 -4
30 -21 23 -32 26 -40 12z"/>
<path d="M3244 2656 c-27 -27 -34 -42 -34 -72 0 -62 10 -69 87 -69 80 1 124
20 153 68 25 40 14 51 -45 48 -52 -2 -58 12 -15 34 17 9 30 18 30 20 0 3 -32
5 -71 5 -67 0 -73 -2 -105 -34z m86 4 c0 -12 -28 -25 -36 -17 -9 9 6 27 22 27
8 0 14 -5 14 -10z m-64 -41 c9 -16 -12 -33 -31 -25 -14 5 -15 9 -5 21 15 18
26 19 36 4z m152 -11 c-7 -19 -38 -22 -38 -4 0 10 9 16 21 16 12 0 19 -5 17
-12z m-68 -12 c0 -20 -19 -31 -32 -18 -6 6 -7 15 -4 21 10 16 36 13 36 -3z"/>
<path d="M3741 2657 c-14 -6 -27 -18 -29 -26 -4 -11 4 -13 37 -8 50 6 79 26
59 38 -18 12 -39 11 -67 -4z"/>
<path d="M2550 2653 c-81 -29 -140 -82 -140 -125 0 -38 24 -36 163 9 113 37
137 49 137 65 0 35 -108 70 -160 51z"/>
<path d="M2587 2483 c-19 -18 -5 -33 33 -33 29 0 42 5 50 20 10 19 8 20 -33
20 -24 0 -47 -3 -50 -7z"/>
<path d="M1171 1923 c-8 -16 -20 -263 -13 -263 2 0 15 25 29 55 24 54 25 59
13 140 -7 47 -14 85 -16 85 -2 0 -7 -8 -13 -17z"/>
<path d="M937 1853 c-4 -3 -7 -14 -7 -24 0 -12 6 -16 20 -12 11 3 20 9 20 14
0 5 8 6 18 2 14 -5 13 -3 -3 10 -22 18 -38 21 -48 10z"/>
<path d="M774 1794 c3 -6 -1 -26 -10 -43 -15 -30 -18 -31 -72 -29 -46 1 -61 6
-77 25 -18 21 -23 22 -58 11 -27 -8 -37 -16 -33 -27 2 -9 16 -49 30 -89 60
-172 136 -490 136 -574 0 -43 3 -48 38 -70 45 -28 60 -30 137 -18 33 5 153 10
267 11 l206 2 7 71 c32 345 65 573 95 650 6 16 9 30 8 31 -19 11 -79 20 -96
14 -13 -5 -22 -4 -22 1 0 21 -16 8 -43 -35 -33 -51 -75 -88 -93 -81 -7 3 -15
-2 -18 -10 -9 -22 -29 -17 -79 21 l-45 35 -7 -39 c-5 -29 -12 -41 -28 -45 -34
-9 -37 -8 -47 18 -9 24 -10 24 -39 10 -28 -14 -31 -13 -63 17 -18 17 -43 35
-55 40 -14 5 -23 17 -23 29 0 14 -4 19 -12 14 -7 -4 -8 -3 -4 5 4 6 11 9 16 6
18 -11 17 12 -2 35 -11 14 -17 20 -14 14z m561 -217 c37 -28 -6 -87 -63 -87
-21 0 -42 18 -42 36 0 6 9 23 21 38 22 28 55 33 84 13z m-115 -131 c0 -19 -22
-36 -47 -36 -29 0 -30 24 -2 44 23 16 49 11 49 -8z"/>
<path d="M2854 1702 c29 -98 98 -432 103 -497 5 -77 8 -85 34 -104 55 -40 265
-46 322 -8 21 14 24 26 36 163 15 181 33 289 65 389 13 41 23 75 22 75 -2 0
-36 -11 -76 -25 -151 -51 -325 -52 -450 -1 -53 22 -60 23 -56 8z m466 -155 c0
-65 -15 -88 -91 -137 -107 -69 -139 -104 -139 -153 0 -55 77 -113 137 -104 29
5 33 4 23 -8 -8 -10 -32 -15 -70 -15 -53 0 -58 2 -53 20 3 11 0 20 -6 20 -6 0
-11 -7 -11 -15 0 -23 -22 -18 -67 15 -75 55 -102 175 -59 259 28 53 81 83 160
91 83 8 127 28 144 65 18 38 32 21 32 -38z"/>
<path d="M3206 1493 c-12 -12 -6 -33 9 -33 8 0 15 6 15 14 0 17 -14 28 -24 19z"/>
<path d="M3076 1457 c-10 -7 -16 -22 -14 -33 2 -14 12 -19 38 -19 29 0 36 4
38 24 6 37 -29 52 -62 28z"/>
<path d="M3010 1325 c-18 -22 -8 -50 19 -50 32 0 49 28 32 49 -17 20 -35 20
-51 1z"/>
<path d="M3052 1203 c2 -10 10 -18 18 -18 8 0 16 8 18 18 2 12 -3 17 -18 17
-15 0 -20 -5 -18 -17z"/>
<path d="M2570 1665 c-14 -7 -68 -25 -120 -41 -91 -26 -106 -27 -365 -31 -285
-5 -363 2 -422 38 -19 12 -34 16 -38 10 -9 -15 12 -85 34 -113 11 -14 23 -36
26 -50 9 -34 41 -38 334 -38 283 0 524 17 560 40 7 4 15 32 17 61 2 30 6 70
10 90 7 43 -2 52 -36 34z"/>
<path d="M2550 1394 c-25 -14 -63 -43 -86 -65 l-40 -40 -140 35 c-231 56 -347
71 -467 57 -160 -18 -161 -18 -165 -76 -6 -89 14 -118 51 -75 20 24 97 29 97
6 0 -7 14 -16 31 -20 54 -11 69 -8 69 14 0 20 24 26 89 22 28 -1 32 -4 35 -28
2 -10 15 -21 30 -25 23 -6 29 -4 33 11 9 34 104 36 129 1 9 -11 15 -12 25 -4
8 6 31 13 52 17 29 5 39 3 43 -9 8 -20 38 -19 55 1 9 11 24 14 48 11 43 -5 88
9 118 35 14 13 28 18 41 13 18 -5 21 0 27 40 7 42 -8 105 -24 105 -3 0 -26
-12 -51 -26z"/>
<path d="M1758 1123 c-3 -24 -8 -29 -41 -33 l-39 -5 32 -23 c46 -34 107 -42
385 -48 l200 -4 -29 22 c-17 13 -40 33 -52 46 -12 12 -26 22 -32 22 -6 0 -18
10 -27 23 l-15 22 -6 -23 c-4 -13 -17 -25 -31 -28 -32 -8 -99 12 -107 32 -7
19 -26 9 -26 -16 0 -26 -28 -33 -42 -10 -14 21 -43 27 -53 10 -7 -12 -55 -13
-71 -2 -6 4 -13 15 -17 25 -10 26 -25 21 -29 -10z m162 -63 c-8 -5 -19 -10
-25 -10 -5 0 -3 5 5 10 8 5 20 10 25 10 6 0 3 -5 -5 -10z"/>
</g>
</svg>
