<?xml version="1.0" encoding="UTF-8"?>
<svg version="1.1" xmlns="http://www.w3.org/2000/svg" width="500" height="500">
<path d="M0 0 C0.66 0 1.32 0 2 0 C3.32 -2.97 4.64 -5.94 6 -9 C8.31 -8.01 10.62 -7.02 13 -6 C12.27991594 -1.39146203 10.68704061 2.67237409 9 7 C10.65 7.99 12.3 8.98 14 10 C14.99 7.525 14.99 7.525 16 5 C21.875 7.75 21.875 7.75 23 10 C22.2575 11.175625 22.2575 11.175625 21.5 12.375 C19.77766741 14.78072186 19.77766741 14.78072186 20.23828125 16.92578125 C21.09087723 19.24746569 22.20261397 20.83654929 23.6875 22.8125 C29.49043703 31.27220338 33.50242236 41.84759053 35 52 C35.10957031 52.73476562 35.21914063 53.46953125 35.33203125 54.2265625 C35.62291616 56.48382938 35.83218051 58.7304412 36 61 C36.05414063 61.6496875 36.10828125 62.299375 36.1640625 62.96875 C37.51755615 94.96041813 17.20667911 124.20642564 -3 147 C-3.72340576 147.81815186 -3.72340576 147.81815186 -4.46142578 148.65283203 C-15.26504602 160.79665723 -26.9615604 171.30528926 -40 181 C-48.32361293 176.09616603 -55.10262012 169.6728626 -62 163 C-62.71462402 162.31260742 -63.42924805 161.62521484 -64.16552734 160.91699219 C-73.91114961 151.50268357 -83.10183496 142.02643305 -91 131 C-91.41652832 130.43313477 -91.83305664 129.86626953 -92.26220703 129.28222656 C-108.8554176 106.55964822 -119.20899236 80.11855124 -115.71582031 51.68701172 C-112.38861142 32.24558601 -101.07271526 14.74305117 -85.30078125 2.98828125 C-59.35235034 -14.07623608 -26.96152153 -16.39221363 0 0 Z M-67.6875 30.3125 C-72.88194323 36.34928537 -77.63557385 42.98208002 -79 51 C-78.62794673 53.19604158 -78.62794673 53.19604158 -78 55 C-77.566875 54.525625 -77.13375 54.05125 -76.6875 53.5625 C-74.21770829 51.27565583 -72.11974839 51.01174004 -68.8125 50.6875 C-64.04364156 51.07839004 -60.82273666 52.09619042 -57 55 C-55.63964257 56.64916347 -54.32945726 58.3405442 -53.0625 60.0625 C-49.30016202 65.08141451 -46.16470933 67.02420802 -40 68 C-36.13335146 68.53071647 -34.61915329 68.36586331 -31.25 66.375 C-30.75830322 66.00028564 -30.26660645 65.62557129 -29.76000977 65.23950195 C-28 64 -28 64 -25.65991211 62.84448242 C-19.27253202 59.60983597 -16.5938954 56.64490829 -14.22851562 49.89648438 C-13.92623047 48.92001953 -13.62394531 47.94355469 -13.3125 46.9375 C-12.96767578 45.95716797 -12.62285156 44.97683594 -12.26757812 43.96679688 C-10.10819726 37.57668715 -10.10819726 37.57668715 -11 31 C-16.39163156 24.22878647 -24.66438285 20.65463561 -33 19 C-47.12109807 18.00501748 -56.99191788 21.10932469 -67.6875 30.3125 Z M-6 38 C-8.64 44.27 -11.28 50.54 -14 57 C-13.01 57.33 -12.02 57.66 -11 58 C-8.36 52.72 -5.72 47.44 -3 42 C-3.99 40.68 -4.98 39.36 -6 38 Z M-2 51 C-3.32 53.64 -4.64 56.28 -6 59 C-4.02 59.66 -2.04 60.32 0 61 C0 58.03 0 55.06 0 52 C-0.66 51.67 -1.32 51.34 -2 51 Z " fill="#D42B27" transform="translate(290,137)"/>
<path d="M0 0 C0.66 0 1.32 0 2 0 C2.67591324 15.8464105 0.91031209 27.62292403 -10 40 C-17.82346824 47.84007858 -28.46593894 51.42128005 -39.375 51.5 C-45.11042284 51.45402467 -48.93017931 50.46285863 -54 48 C-53.195625 47.195625 -52.39125 46.39125 -51.5625 45.5625 C-48.39188098 41.73058044 -47.5415088 37.92878035 -48 33 C-50.03177731 28.86119436 -51.76814559 26.72380124 -56 25 C-59.7724764 24.34839044 -63.4477817 24.11723737 -66.84765625 26.05078125 C-68.66639294 27.51952805 -68.66639294 27.51952805 -71 30 C-71.66 30.66 -72.32 31.32 -73 32 C-78.8100935 22.7038504 -79.29676458 14.81542017 -79 4 C-78.34 4.66 -77.68 5.32 -77 6 C-76.566875 5.525625 -76.13375 5.05125 -75.6875 4.5625 C-73.21770829 2.27565583 -71.11974839 2.01174004 -67.8125 1.6875 C-60.95464802 2.24961901 -56.68681664 4.91907067 -52.1875 10.0625 C-51.64480469 10.73410156 -51.10210937 11.40570313 -50.54296875 12.09765625 C-46.35911623 17.25597568 -42.6160133 18.55722286 -35.9375 19.375 C-32.07274177 18.88162661 -30.17421412 17.25857543 -27 15 C-25.28858807 14.03046773 -23.55790839 13.09440305 -21.8125 12.1875 C-20.97332031 11.74792969 -20.13414062 11.30835938 -19.26953125 10.85546875 C-17 10 -17 10 -14 11 C-13.67 10.34 -13.34 9.68 -13 9 C-12.01 9.66 -11.02 10.32 -10 11 C-10.66 12.65 -11.32 14.3 -12 16 C-8.63279613 14.60667426 -7.0140476 13.0210714 -5 10 C-3.35 10.66 -1.7 11.32 0 12 C0 10.7625 0 9.525 0 8.25 C0 5.5 0 2.75 0 0 Z " fill="#E9B63D" transform="translate(289,185)"/>
<path d="M0 0 C3.465 1.485 3.465 1.485 7 3 C6.27991594 7.60853797 4.68704061 11.67237409 3 16 C4.65 16.99 6.3 17.98 8 19 C8.66 17.35 9.32 15.7 10 14 C15.875 16.75 15.875 16.75 17 19 C15.75551115 21.16486022 14.46561314 23.19093285 13.0625 25.25 C9.81828031 30.13918509 6.73969043 35.06634122 3.875 40.1875 C1.46612874 44.4900366 -1.04849744 48.68552374 -3.75 52.8125 C-6.69632862 57.35672309 -9.00106478 61.97162259 -11 67 C-11.66 67 -12.32 67 -13 67 C-13.2475 67.804375 -13.495 68.60875 -13.75 69.4375 C-15 72 -15 72 -17.125 72.8125 C-17.74375 72.874375 -18.3625 72.93625 -19 73 C-18.36111113 67.93959451 -16.13720723 63.71988466 -13.9375 59.1875 C-13.56044922 58.39923828 -13.18339844 57.61097656 -12.79492188 56.79882812 C-11.86829839 54.86347527 -10.93482533 52.93140451 -10 51 C-10.66 50.34 -11.32 49.68 -12 49 C-14.31 54.61 -16.62 60.22 -19 66 C-19.66 66 -20.32 66 -21 66 C-21 66.66 -21 67.32 -21 68 C-21.99 68 -22.98 68 -24 68 C-23.42559984 62.17837676 -21.780955 57.29302694 -19.625 51.875 C-18.9044837 50.02231589 -18.18446079 48.16943984 -17.46484375 46.31640625 C-17.07280762 45.31367676 -16.68077148 44.31094727 -16.27685547 43.27783203 C-14.13092569 37.76898821 -12.01959736 32.24707863 -9.91595459 26.72198486 C-9.20392552 24.85555592 -8.48702911 22.99098614 -7.77001953 21.12646484 C-5.46020524 15.07123121 -3.30707377 9.04585428 -1.5715332 2.79956055 C-1 1 -1 1 0 0 Z " fill="#51120F" transform="translate(296,128)"/>
<path d="M0 0 C3.9929311 2.16316073 6.62544072 5.09347889 9.45703125 8.59765625 C11.78000208 11.46167345 13.91379833 13.44253222 17 15.5 C16.01 15.5 15.02 15.5 14 15.5 C14.3609375 16.15484375 14.721875 16.8096875 15.09375 17.484375 C18.69703908 24.57084352 20.24428286 30.56081467 19 38.5 C17.93033966 41.47944018 16.67137755 43.78401148 15 46.5 C9.46153846 46.86923077 9.46153846 46.86923077 7.125 45 C6.75375 44.505 6.3825 44.01 6 43.5 C6.804375 42.860625 7.60875 42.22125 8.4375 41.5625 C11.34542965 38.08716944 11.93809399 36.13593358 12.203125 31.71875 C11.87470085 28.13134774 10.36881523 26.12490336 8 23.5 C3.81115543 20.96395632 -0.21937199 20.66318297 -5 21.5 C-7.48187968 22.91147068 -8.96854575 24.41899809 -11 26.5 C-11.66 27.16 -12.32 27.82 -13 28.5 C-18.8100935 19.2038504 -19.29676458 11.31542017 -19 0.5 C-18.34 1.16 -17.68 1.82 -17 2.5 C-16.566875 2.025625 -16.13375 1.55125 -15.6875 1.0625 C-11.31832555 -2.9830319 -5.11075302 -2.25270085 0 0 Z " fill="#E8E7E5" transform="translate(229,188.5)"/>
<path d="M0 0 C4.57015831 1.82806332 6.87647372 4.58959926 9 9 C9.34258328 13.62487424 8.5833236 17.03449886 6.1875 21 C3.89969041 23.09171163 3.01731412 23.67889134 0 24 C-7.12918969 20.91783152 -12.1974086 14.88873605 -17 9 C-12.62620954 1.46458386 -8.74624017 -1.29042888 0 0 Z " fill="#E89943" transform="translate(233,209)"/>
<path d="M0 0 C5.875 2.75 5.875 2.75 7 5 C5.75551115 7.16486022 4.46561314 9.19093285 3.0625 11.25 C-0.18171969 16.13918509 -3.26030957 21.06634122 -6.125 26.1875 C-8.53387126 30.4900366 -11.04849744 34.68552374 -13.75 38.8125 C-16.69632862 43.35672309 -19.00106478 47.97162259 -21 53 C-21.66 53 -22.32 53 -23 53 C-23.2475 53.804375 -23.495 54.60875 -23.75 55.4375 C-25 58 -25 58 -27.125 58.8125 C-27.74375 58.874375 -28.3625 58.93625 -29 59 C-28.37534462 54.41626119 -26.5247962 50.6309587 -24.4375 46.5625 C-24.08107422 45.85802734 -23.72464844 45.15355469 -23.35742188 44.42773438 C-20.42901721 38.69958957 -17.24831144 33.14768543 -14.015625 27.5859375 C-10.73273495 21.83927379 -7.86088234 15.87601137 -4.95117188 9.93457031 C-3.31860753 6.61412887 -1.65765411 3.30797346 0 0 Z " fill="#4E120E" transform="translate(306,142)"/>
<path d="M0 0 C0.66 0 1.32 0 2 0 C2.67591324 15.8464105 0.91031209 27.62292403 -10 40 C-17.29111592 47.30659599 -27.56714763 51.30040395 -37.8125 51.3125 C-39.5430284 51.2341449 -41.2733649 51.13999744 -43 51 C-43 50.67 -43 50.34 -43 50 C-41.7625 49.87625 -40.525 49.7525 -39.25 49.625 C-36.09128856 49.23016107 -33.7502965 48.66982288 -31 47 C-30.319375 46.690625 -29.63875 46.38125 -28.9375 46.0625 C-26.80750709 44.89443937 -25.49373588 43.92051755 -24 42 C-23.896875 41.195625 -23.79375 40.39125 -23.6875 39.5625 C-22.67230755 35.77860086 -20.26944252 34.93497618 -17 33 C-16.34 32.34 -15.68 31.68 -15 31 C-12.36 31.99 -9.72 32.98 -7 34 C-7 33.01 -7 32.02 -7 31 C-6.34 31 -5.68 31 -5 31 C-2.96834048 26.66579301 -2.47939368 22.71403788 -2 18 C-2.66 17.67 -3.32 17.34 -4 17 C-2.68 16.67 -1.36 16.34 0 16 C0 15.18015625 0 14.3603125 0 13.515625 C0 9.01041667 0 4.50520833 0 0 Z " fill="#E9B33D" transform="translate(289,185)"/>
<path d="M0 0 C1.32 0.66 2.64 1.32 4 2 C0.89518132 7.71286637 0.89518132 7.71286637 -3.3125 9.0625 C-4.529375 9.371875 -5.74625 9.68125 -7 10 C-8.90812473 11.19110866 -10.65546061 12.48806128 -12.421875 13.87890625 C-15.57951271 16.12207958 -18.45794 16.11093584 -22.1875 16.0625 C-23.08855469 16.05347656 -23.98960937 16.04445312 -24.91796875 16.03515625 C-25.60503906 16.02355469 -26.29210937 16.01195312 -27 16 C-26.67 16.66 -26.34 17.32 -26 18 C-25.4972014 26.45088408 -25.13617197 34.27234393 -29 42 C-30.32 41.67 -31.64 41.34 -33 41 C-32.34 41 -31.68 41 -31 41 C-28.06193782 33.75277995 -26.1042998 26.21524509 -28.89453125 18.5390625 C-29.87996302 16.66569751 -30.93550695 14.82959742 -32 13 C-32 12.01 -32 11.02 -32 10 C-30.69675781 10.06960937 -30.69675781 10.06960937 -29.3671875 10.140625 C-22.53346711 10.35465651 -18.44865295 10.48000353 -13 6 C-11.29320029 5.02237105 -9.56163331 4.08719788 -7.8125 3.1875 C-6.97332031 2.74792969 -6.13414062 2.30835938 -5.26953125 1.85546875 C-3 1 -3 1 0 2 C0 1.34 0 0.68 0 0 Z " fill="#EBB842" transform="translate(275,194)"/>
<path d="M0 0 C1.98 0 3.96 0 6 0 C5.01 0.33 4.02 0.66 3 1 C3.3609375 1.65484375 3.721875 2.3096875 4.09375 2.984375 C7.69703908 10.07084352 9.24428286 16.06081467 8 24 C6.93033966 26.97944018 5.67137755 29.28401148 4 32 C-1.53846154 32.36923077 -1.53846154 32.36923077 -3.875 30.5 C-4.24625 30.005 -4.6175 29.51 -5 29 C-4.195625 28.360625 -3.39125 27.72125 -2.5625 27.0625 C0.34542965 23.58716944 0.93809399 21.63593358 1.203125 17.21875 C0.87470085 13.63134774 -0.63118477 11.62490336 -3 9 C-5.91109919 7.23364595 -8.37646038 6.67266526 -11.75 6.375 C-12.94882813 6.26285156 -12.94882813 6.26285156 -14.171875 6.1484375 C-14.77515625 6.09945312 -15.3784375 6.05046875 -16 6 C-16 5.34 -16 4.68 -16 4 C-12.7 4 -9.4 4 -6 4 C-6 4.66 -6 5.32 -6 6 C-4.576875 6.2165625 -4.576875 6.2165625 -3.125 6.4375 C0 7 0 7 2 8 C1.67 7.236875 1.34 6.47375 1 5.6875 C0 3 0 3 0 0 Z " fill="#F0E0C8" transform="translate(240,203)"/>
<path d="M0 0 C3.465 1.98 3.465 1.98 7 4 C4.65272925 10.12816606 1.57120224 15.86409927 -1.4375 21.6875 C-2.02337891 22.84056641 -2.60925781 23.99363281 -3.21289062 25.18164062 C-3.78072266 26.28056641 -4.34855469 27.37949219 -4.93359375 28.51171875 C-5.7078772 30.01931763 -5.7078772 30.01931763 -6.49780273 31.55737305 C-8 34 -8 34 -11 36 C-12.48101291 33.12174407 -13.16210804 31.64307981 -12.35668945 28.44799805 C-11.94636475 27.56152588 -11.53604004 26.67505371 -11.11328125 25.76171875 C-10.66919922 24.77623047 -10.22511719 23.79074219 -9.76757812 22.77539062 C-9.04731445 21.24688477 -9.04731445 21.24688477 -8.3125 19.6875 C-7.39020862 17.67135815 -6.4696023 15.65444451 -5.55078125 13.63671875 C-4.89070068 12.20078369 -4.89070068 12.20078369 -4.21728516 10.73583984 C-2.64705653 7.20676202 -1.29912503 3.63668111 0 0 Z " fill="#B72E2C" transform="translate(297,143)"/>
<path d="M0 0 C5.875 2.75 5.875 2.75 7 5 C5.71389867 6.9829888 4.42150861 8.96133376 3.125 10.9375 C2.40570313 12.03964844 1.68640625 13.14179688 0.9453125 14.27734375 C-1 17 -1 17 -3 18 C-3.99 17.01 -4.98 16.02 -6 15 C-6.33 15.99 -6.66 16.98 -7 18 C-7.33 17.34 -7.66 16.68 -8 16 C-7.109375 14.08203125 -7.109375 14.08203125 -5.75 11.8125 C-3.50896624 7.95467587 -1.67091651 4.13331979 0 0 Z " fill="#461210" transform="translate(306,142)"/>
<path d="M0 0 C3 1 3 1 4 3 C4.14851844 4.93359586 4.22130833 6.87342097 4.25 8.8125 C4.28867188 10.36904297 4.28867188 10.36904297 4.328125 11.95703125 C3.955231 15.41517921 3.13003111 17.26778719 1 20 C-2 20.5 -2 20.5 -5 20 C-6.875 18.5 -6.875 18.5 -8 17 C-3.375 12.125 -3.375 12.125 0 11 C0 7.37 0 3.74 0 0 Z " fill="#E8E7E2" transform="translate(243,215)"/>
<path d="M0 0 C0.33 0.66 0.66 1.32 1 2 C1.66 2 2.32 2 3 2 C4.596892 6.77242581 3.10159349 9.97998408 1.0625 14.3125 C0.77181641 14.95767578 0.48113281 15.60285156 0.18164062 16.26757812 C-0.53361087 17.85051177 -1.26520324 19.42604405 -2 21 C-2.66 21 -3.32 21 -4 21 C-4 21.66 -4 22.32 -4 23 C-4.99 23 -5.98 23 -7 23 C-6.42389687 17.45044957 -4.97901452 12.73970503 -2.9375 7.5625 C-2.65583984 6.83095703 -2.37417969 6.09941406 -2.08398438 5.34570312 C-1.39586753 3.56126454 -0.69885394 1.78026095 0 0 Z " fill="#564545" transform="translate(279,173)"/>
<path d="M0 0 C3.465 1.485 3.465 1.485 7 3 C6.33501617 7.38889325 4.81242323 10.9811485 3 15 C0 15 0 15 -2 14 C-2 13.34 -2 12.68 -2 12 C-2.66 11.67 -3.32 11.34 -4 11 C-3.5247412 9.35303396 -3.04468109 7.70745272 -2.5625 6.0625 C-2.29566406 5.14597656 -2.02882813 4.22945312 -1.75390625 3.28515625 C-1 1 -1 1 0 0 Z " fill="#483030" transform="translate(296,128)"/>
<path d="M0 0 C1.32 0.66 2.64 1.32 4 2 C2.87347559 4.87889573 2.35623659 6.08332164 0 8 C-4.62308832 9.16562641 -9.2628009 9.54961337 -14 10 C-15.67143441 10.30853836 -17.34072699 10.6316225 -19 11 C-14.19268139 6.94382492 -9.00811095 3.00270365 -3 1 C-2.01 1.33 -1.02 1.66 0 2 C0 1.34 0 0.68 0 0 Z " fill="#E4BB50" transform="translate(275,194)"/>
<path d="M0 0 C0.66 0 1.32 0 2 0 C2.67499612 15.82490903 0.92079841 27.63529715 -10 40 C-14.5472973 44 -14.5472973 44 -17 44 C-17 43.34 -17 42.68 -17 42 C-12.52941176 38 -12.52941176 38 -10 38 C-10 37.01 -10 36.02 -10 35 C-10.66 34.67 -11.32 34.34 -12 34 C-10.35 34 -8.7 34 -7 34 C-7 33.01 -7 32.02 -7 31 C-6.34 31 -5.68 31 -5 31 C-2.96834048 26.66579301 -2.47939368 22.71403788 -2 18 C-2.66 17.67 -3.32 17.34 -4 17 C-2.68 16.67 -1.36 16.34 0 16 C0 15.18015625 0 14.3603125 0 13.515625 C0 9.01041667 0 4.50520833 0 0 Z " fill="#F4A44D" transform="translate(289,185)"/>
<path d="M0 0 C1.13464969 3.41993666 1.01163545 3.97070417 -0.42578125 7.58984375 C-3.1759713 15.22682567 -2.31155628 23.56438073 -2.1875 31.5625 C-2.17242858 33.2558475 -2.15874451 34.94920794 -2.14648438 36.64257812 C-2.11366704 40.76204222 -2.06202063 44.8808763 -2 49 C-8.57561962 36.4561004 -5.79535512 18.03915627 -1.97265625 4.95703125 C-1 2 -1 2 0 0 Z " fill="#D6706E" transform="translate(179,173)"/>
<path d="M0 0 C0.66 0 1.32 0 2 0 C0.9706067 7.24638702 -0.67600283 13.46495702 -4 20 C-4.66 20 -5.32 20 -6 20 C-6 19.34 -6 18.68 -6 18 C-6.66 18 -7.32 18 -8 18 C-7.6875 14.625 -7.6875 14.625 -7 11 C-6.01 10.34 -5.02 9.68 -4 9 C-3.03355976 7.08418896 -3.03355976 7.08418896 -2.375 4.9375 C-1.07629428 1.07629428 -1.07629428 1.07629428 0 0 Z " fill="#411413" transform="translate(288,157)"/>
<path d="M0 0 C-0.99 0.33 -1.98 0.66 -3 1 C-2.67 1.99 -2.34 2.98 -2 4 C-3.74802146 4.81674796 -5.49850189 5.62823451 -7.25 6.4375 C-8.22453125 6.88996094 -9.1990625 7.34242188 -10.203125 7.80859375 C-14.75821324 9.74895955 -18.28469466 10.11647071 -23.25 10.0625 C-24.32765625 10.05347656 -25.4053125 10.04445312 -26.515625 10.03515625 C-27.33546875 10.02355469 -28.1553125 10.01195312 -29 10 C-29 9.67 -29 9.34 -29 9 C-27.7625 8.87625 -26.525 8.7525 -25.25 8.625 C-22.71736872 8.32233053 -21.0989985 8.05091351 -18.8125 6.875 C-16.2848933 5.65477608 -14.63509593 6.26802891 -12 7 C-12 6.34 -12 5.68 -12 5 C-11.34 5 -10.68 5 -10 5 C-9.67 4.01 -9.34 3.02 -9 2 C-3.69230769 -1.23076923 -3.69230769 -1.23076923 0 0 Z " fill="#F5A448" transform="translate(275,226)"/>
<path d="M0 0 C1.65 0.33 3.3 0.66 5 1 C3.125 6.75 3.125 6.75 2 9 C1.34 9 0.68 9 0 9 C-0.2475 9.804375 -0.495 10.60875 -0.75 11.4375 C-2 14 -2 14 -4.125 14.8125 C-4.74375 14.874375 -5.3625 14.93625 -6 15 C-5.39644592 11.14974121 -4.23227397 8.13898841 -2.4375 4.6875 C-1.98246094 3.80449219 -1.52742188 2.92148438 -1.05859375 2.01171875 C-0.53458984 1.01591797 -0.53458984 1.01591797 0 0 Z " fill="#5E4B49" transform="translate(283,186)"/>
<path d="M0 0 C0.495 0.99 0.495 0.99 1 2 C-0.216875 1.67 -1.43375 1.34 -2.6875 1 C-12.18270286 -1.090139 -21.63548085 -0.36755337 -31 2 C-31 -1 -31 -1 -30 -2 C-20.10403604 -3.46006026 -9.20279563 -4.76534311 0 0 Z " fill="#CE5A57" transform="translate(265,157)"/>
<path d="M0 0 C0.99 0.66 1.98 1.32 3 2 C3.66 1.67 4.32 1.34 5 1 C4.54636829 2.58468677 4.08688548 4.16769924 3.625 5.75 C3.36976563 6.63171875 3.11453125 7.5134375 2.8515625 8.421875 C2.07158102 10.78328681 1.27896369 12.86839385 0 15 C-2.125 15.75 -2.125 15.75 -4 16 C-4.4238015 11.33818346 -2.90963085 8.20118786 -1 4 C-0.62691369 2.67723944 -0.26953585 1.34767923 0 0 Z " fill="#3B1514" transform="translate(293,140)"/>
<path d="M0 0 C0.33 0.66 0.66 1.32 1 2 C0.01 2.495 0.01 2.495 -1 3 C-1.65213292 5.02463255 -1.65213292 5.02463255 -2 7 C-3.65 7.33 -5.3 7.66 -7 8 C-7.268125 8.969375 -7.53625 9.93875 -7.8125 10.9375 C-8.204375 11.948125 -8.59625 12.95875 -9 14 C-9.99 14.33 -10.98 14.66 -12 15 C-12.99 16.485 -12.99 16.485 -14 18 C-16 21 -16 21 -19 22 C-15.8875833 12.79379901 -7.31976739 6.02335082 0 0 Z " fill="#D05959" transform="translate(204,141)"/>
<path d="M0 0 C0.33 0.66 0.66 1.32 1 2 C2.32 1.67 3.64 1.34 5 1 C5 1.66 5 2.32 5 3 C3.700625 3.226875 2.40125 3.45375 1.0625 3.6875 C-4.23534882 4.85369314 -8.38587743 7.2350154 -13 10 C-19.83333333 13.67948718 -19.83333333 13.67948718 -24 14 C-26.8125 13.0625 -26.8125 13.0625 -29 12 C-28.67 11.34 -28.34 10.68 -28 10 C-27.38253906 10.05800781 -26.76507813 10.11601562 -26.12890625 10.17578125 C-19.0678308 10.55194204 -14.80596398 8.9181352 -9 5 C-5.77208445 2.8480563 -4.71599191 2.79913557 -1 3 C-0.67 2.01 -0.34 1.02 0 0 Z " fill="#DFA738" transform="translate(276,199)"/>
<path d="M0 0 C0.97591583 3.38317487 0.85856655 5.5657338 0 9 C0.66 9 1.32 9 2 9 C0.79157144 13.43090471 -0.51668565 15.98112756 -4 19 C-5.1796875 16.95703125 -5.1796875 16.95703125 -6 14 C-5.16884854 11.35833329 -4.31681564 9.1497404 -3.125 6.6875 C-2.68220703 5.71973633 -2.68220703 5.71973633 -2.23046875 4.73242188 C-1.50265055 3.14765643 -0.75339577 1.57276688 0 0 Z " fill="#BC3735" transform="translate(290,160)"/>
<path d="M0 0 C0.66 0.33 1.32 0.66 2 1 C2 1.99 2 2.98 2 4 C1.34 4 0.68 4 0 4 C0.0825 5.0725 0.165 6.145 0.25 7.25 C0 11 0 11 -2 13.4375 C-2.99 14.2109375 -2.99 14.2109375 -4 15 C-4.66 14.67 -5.32 14.34 -6 14 C-5.34 11.03 -4.68 8.06 -4 5 C-3.34 5 -2.68 5 -2 5 C-1.855625 4.360625 -1.71125 3.72125 -1.5625 3.0625 C-1 1 -1 1 0 0 Z " fill="#C72B27" transform="translate(295,155)"/>
<path d="M0 0 C0.93423645 3.01031744 1.04449911 3.86650268 0 7 C0.66 7 1.32 7 2 7 C0.92598892 9.91517292 0.22189824 11.77810176 -2 14 C-2.99 14 -3.98 14 -5 14 C-5.33 14.66 -5.66 15.32 -6 16 C-5.59683075 9.68368172 -3.28767869 5.35006016 0 0 Z " fill="#48211C" transform="translate(290,173)"/>
<path d="M0 0 C0.33 0 0.66 0 1 0 C1.06058594 0.85464844 1.12117187 1.70929688 1.18359375 2.58984375 C1.26738281 3.69457031 1.35117188 4.79929688 1.4375 5.9375 C1.51871094 7.03964844 1.59992188 8.14179688 1.68359375 9.27734375 C1.70418084 11.91109903 1.70418084 11.91109903 3 13 C3.061875 14.11375 3.12375 15.2275 3.1875 16.375 C3.455625 17.57125 3.72375 18.7675 4 20 C6.93449408 22.01041003 6.93449408 22.01041003 10 23 C8.68 24.65 7.36 26.3 6 28 C0.1899065 18.7038504 -0.29676458 10.81542017 0 0 Z " fill="#F3D0C8" transform="translate(210,189)"/>
<path d="M0 0 C0.99 0.33 1.98 0.66 3 1 C2.39816251 3.02045442 1.72693904 5.02111039 1 7 C0.01 7.495 0.01 7.495 -1 8 C-1.65213292 10.02463255 -1.65213292 10.02463255 -2 12 C-2.66 12 -3.32 12 -4 12 C-4 12.99 -4 13.98 -4 15 C-4.66 15 -5.32 15 -6 15 C-5.83560987 8.27494919 -4.78944649 4.78944649 0 0 Z " fill="#3C1514" transform="translate(300,157)"/>
<path d="M0 0 C5.875 2.75 5.875 2.75 7 5 C5.02 7.97 5.02 7.97 3 11 C2.34 10.34 1.68 9.68 1 9 C1.33 8.34 1.66 7.68 2 7 C0.68 6.67 -0.64 6.34 -2 6 C-1.125 1.125 -1.125 1.125 0 0 Z " fill="#513A3A" transform="translate(306,142)"/>
<path d="M0 0 C9.82568807 -0.57798165 9.82568807 -0.57798165 14 3 C16.45600924 5.71453653 17.94533295 7.62649045 18.09375 11.35546875 C17.8882806 13.66333037 17.66398355 15.77892827 17 18 C16.34 18.33 15.68 18.66 15 19 C15.185625 17.7625 15.37125 16.525 15.5625 15.25 C16.12738037 11.02954496 16.12738037 11.02954496 15 7 C14.01 6.67 13.02 6.34 12 6 C11.67 4.68 11.34 3.36 11 2 C7.37 1.67 3.74 1.34 0 1 C0 0.67 0 0.34 0 0 Z " fill="#DBA25E" transform="translate(224,209)"/>
<path d="M0 0 C0.66 1.32 1.32 2.64 2 4 C2.99 4 3.98 4 5 4 C5.66 2.68 6.32 1.36 7 0 C6.45276317 3.37462715 5.9451 5.08235 4 8 C1.0625 8.375 1.0625 8.375 -2 8 C-3.875 6.5 -3.875 6.5 -5 5 C-3.35 3.35 -1.7 1.7 0 0 Z " fill="#F2DBC9" transform="translate(240,227)"/>
<path d="M0 0 C0.66 0 1.32 0 2 0 C2.0544207 2.68777802 2.09387266 5.37443212 2.125 8.0625 C2.14175781 8.81466797 2.15851563 9.56683594 2.17578125 10.34179688 C2.21865121 15.29327709 1.58399375 19.30414451 0 24 C-0.66 24 -1.32 24 -2 24 C-2 22.02 -2 20.04 -2 18 C-2.66 17.67 -3.32 17.34 -4 17 C-2.68 16.67 -1.36 16.34 0 16 C0 15.18015625 0 14.3603125 0 13.515625 C0 9.01041667 0 4.50520833 0 0 Z " fill="#E99865" transform="translate(289,185)"/>
<path d="M0 0 C2.9375 0.75 2.9375 0.75 6 2 C6.9375 4.0625 6.9375 4.0625 7 6 C6 7 6 7 4.15234375 7.09765625 C2.1015625 7.06510417 0.05078125 7.03255208 -2 7 C-1.125 2.25 -1.125 2.25 0 0 Z " fill="#E7B93F" transform="translate(283,195)"/>
<path d="M0 0 C0.99 0 1.98 0 3 0 C3.226875 1.010625 3.45375 2.02125 3.6875 3.0625 C4.73064548 6.76979402 6.50553245 9.38501152 8.82421875 12.421875 C10.13623029 14.18284731 11.11616907 15.99129334 12 18 C11.34 18.66 10.68 19.32 10 20 C8.51494131 17.41989804 7.03682689 14.83622441 5.5625 12.25 C5.14162109 11.52039063 4.72074219 10.79078125 4.28710938 10.0390625 C3.68286133 8.97558594 3.68286133 8.97558594 3.06640625 7.890625 C2.69459229 7.24125977 2.32277832 6.59189453 1.93969727 5.92285156 C0.9812968 3.96172866 0.4496957 2.13035565 0 0 Z " fill="#CF5C5A" transform="translate(184,241)"/>
<path d="M0 0 C0.99 0.33 1.98 0.66 3 1 C2.59007812 1.64066406 2.18015625 2.28132812 1.7578125 2.94140625 C-1.33815426 7.91124762 -3.75372504 12.26713518 -5 18 C-5.33 18 -5.66 18 -6 18 C-6 14.7 -6 11.4 -6 8 C-5.34 7.67 -4.68 7.34 -4 7 C-3.34444881 4.47266765 -3.34444881 4.47266765 -3 2 C-2.01 2 -1.02 2 0 2 C0 1.34 0 0.68 0 0 Z " fill="#D26866" transform="translate(217,170)"/>
<path d="M0 0 C1.07841991 3.44264817 1.00581472 6.47381623 0.875 10.0625 C0.80241955 16.47861219 1.96135402 21.94473606 4 28 C3.34 28.33 2.68 28.66 2 29 C1.67 27.02 1.34 25.04 1 23 C0.34 23 -0.32 23 -1 23 C-1.02902429 19.72918529 -1.04680684 16.4584037 -1.0625 13.1875 C-1.07087891 12.25873047 -1.07925781 11.32996094 -1.08789062 10.37304688 C-1.09111328 9.48037109 -1.09433594 8.58769531 -1.09765625 7.66796875 C-1.10289307 6.84578857 -1.10812988 6.0236084 -1.11352539 5.17651367 C-1 3 -1 3 0 0 Z " fill="#BC3936" transform="translate(210,185)"/>
<path d="M0 0 C0.33 0 0.66 0 1 0 C1 1.65 1 3.3 1 5 C1.99 5 2.98 5 4 5 C4 3.35 4 1.7 4 0 C4.99 0.66 5.98 1.32 7 2 C6.01 4.64 5.02 7.28 4 10 C1 7 -2 4 -5 1 C-2.525 1.495 -2.525 1.495 0 2 C0 1.34 0 0.68 0 0 Z " fill="#CD5E5A" transform="translate(277,161)"/>
<path d="M0 0 C-1.66278555 0.71262238 -3.32610545 1.42402538 -4.9921875 2.12890625 C-6.29968625 2.69616738 -7.59754232 3.28637401 -8.8828125 3.90234375 C-12.42948256 5.56820393 -14.28100945 6.19915164 -18 5 C-16.23002526 4.18563132 -14.45898848 3.3735706 -12.6875 2.5625 C-11.70136719 2.11003906 -10.71523437 1.65757812 -9.69921875 1.19140625 C-5.91942643 -0.4769536 -3.94996412 -1.22585093 0 0 Z " fill="#D06463" transform="translate(231,130)"/>
<path d="M0 0 C0.99 0.33 1.98 0.66 3 1 C1.63629701 3.99220268 0.05091917 6.29026529 -2.125 8.75 C-2.93324219 9.67039062 -2.93324219 9.67039062 -3.7578125 10.609375 C-4.16773438 11.06828125 -4.57765625 11.5271875 -5 12 C-7 9 -7 9 -6.625 6.8125 C-6.41875 6.214375 -6.2125 5.61625 -6 5 C-4.02 4.67 -2.04 4.34 0 4 C0 2.68 0 1.36 0 0 Z " fill="#D05854" transform="translate(288,277)"/>
<path d="M0 0 C-1 3 -1 3 -3.1875 4.16796875 C-9.42880694 6.43044252 -14.36503019 7.43507999 -21 7 C-21 6.67 -21 6.34 -21 6 C-20.21496094 5.81824219 -19.42992187 5.63648438 -18.62109375 5.44921875 C-13.00394574 4.10523855 -5.56931178 0 0 0 Z " fill="#C9391E" transform="translate(273,230)"/>
<path d="M0 0 C0.66 0.33 1.32 0.66 2 1 C2.30372936 9.00945568 2.50848663 15.69065285 -1 23 C-2.32 22.67 -3.64 22.34 -5 22 C-4.34 22 -3.68 22 -3 22 C-0.81982238 16.62222855 0.11616561 12.6620515 0.0625 6.8125 C0.05347656 5.54019531 0.04445312 4.26789063 0.03515625 2.95703125 C0.02355469 1.98121094 0.01195312 1.00539062 0 0 Z " fill="#E0B561" transform="translate(247,213)"/>
<path d="M0 0 C4.62 0.99 9.24 1.98 14 3 C14 3.33 14 3.66 14 4 C13.22914063 4.06058594 12.45828125 4.12117187 11.6640625 4.18359375 C10.66117188 4.26738281 9.65828125 4.35117188 8.625 4.4375 C7.12839844 4.55931641 7.12839844 4.55931641 5.6015625 4.68359375 C3.02072387 4.84965626 3.02072387 4.84965626 1 6 C0.01 5.67 -0.98 5.34 -2 5 C-2 4.34 -2 3.68 -2 3 C-1.34 2.67 -0.68 2.34 0 2 C0 1.34 0 0.68 0 0 Z " fill="#C63327" transform="translate(235,233)"/>
<path d="M0 0 C0.99 0.33 1.98 0.66 3 1 C0.36 4.63 -2.28 8.26 -5 12 C-5.33 10.68 -5.66 9.36 -6 8 C-5.34 7.01 -4.68 6.02 -4 5 C-3.34 5 -2.68 5 -2 5 C-1.855625 4.360625 -1.71125 3.72125 -1.5625 3.0625 C-1 1 -1 1 0 0 Z " fill="#D06362" transform="translate(303,259)"/>
<path d="M0 0 C0.66 0.33 1.32 0.66 2 1 C0.625 2.5 0.625 2.5 -1 4 C-1.66 4 -2.32 4 -3 4 C-3.33 5.65 -3.66 7.3 -4 9 C-4.66 8.67 -5.32 8.34 -6 8 C-6 7.34 -6 6.68 -6 6 C-8.64 6 -11.28 6 -14 6 C-14 5.67 -14 5.34 -14 5 C-11.36 5 -8.72 5 -6 5 C-6 4.34 -6 3.68 -6 3 C-4.03533587 1.93224776 -2.03144641 0.93446535 0 0 Z " fill="#E2AD36" transform="translate(262,223)"/>
<path d="M0 0 C0.33 0.66 0.66 1.32 1 2 C1.66 2 2.32 2 3 2 C4.125 6.75 4.125 6.75 3 9 C2.01 9 1.02 9 0 9 C-1.125 2.25 -1.125 2.25 0 0 Z " fill="#594242" transform="translate(279,173)"/>
<path d="M0 0 C3.465 1.485 3.465 1.485 7 3 C7 3.99 7 4.98 7 6 C5.88625 5.814375 4.7725 5.62875 3.625 5.4375 C0.17431139 4.68319343 0.17431139 4.68319343 -2 6 C-1.34 4.02 -0.68 2.04 0 0 Z " fill="#645353" transform="translate(296,128)"/>
<path d="M0 0 C0.99 0.33 1.98 0.66 3 1 C3 2.98 3 4.96 3 7 C3.66 7 4.32 7 5 7 C6.35439668 9.70879335 6.06501451 12.00933268 6 15 C2.35219334 10.8310781 0 5.55196264 0 0 Z " fill="#D26363" transform="translate(178,226)"/>
<path d="M0 0 C1.32 0 2.64 0 4 0 C4 0.99 4 1.98 4 3 C5.32 2.67 6.64 2.34 8 2 C8 3.65 8 5.3 8 7 C8.66 7.33 9.32 7.66 10 8 C7 8 7 8 5.17578125 6.50390625 C4.56089844 5.86324219 3.94601563 5.22257812 3.3125 4.5625 C2.68988281 3.92441406 2.06726563 3.28632813 1.42578125 2.62890625 C0 1 0 1 0 0 Z " fill="#CC4646" transform="translate(220,291)"/>
<path d="M0 0 C0.33 0.66 0.66 1.32 1 2 C-4.91684902 11.48796499 -4.91684902 11.48796499 -9.4375 13.625 C-10.7059375 13.810625 -10.7059375 13.810625 -12 14 C-11.319375 13.360625 -10.63875 12.72125 -9.9375 12.0625 C-6.22657527 8.37290243 -3.1498651 4.16653626 0 0 Z " fill="#C93B1B" transform="translate(285,216)"/>
<path d="M0 0 C-0.99 0.33 -1.98 0.66 -3 1 C-2.67 1.99 -2.34 2.98 -2 4 C-4.76264289 4.59732819 -7.16032769 5 -10 5 C-9 2 -9 2 -6.125 0.25 C-3 -1 -3 -1 0 0 Z " fill="#EFB242" transform="translate(275,226)"/>
<path d="M0 0 C0.66 0.33 1.32 0.66 2 1 C1.319375 1.53625 0.63875 2.0725 -0.0625 2.625 C-2.36528438 4.88767161 -2.36528438 4.88767161 -1.75 8.0625 C-1.5025 9.031875 -1.255 10.00125 -1 11 C-1 11.99 -1 12.98 -1 14 C-2.65 12.02 -4.3 10.04 -6 8 C-4.26440562 4.942048 -2.61527381 2.36620011 0 0 Z " fill="#E79C5E" transform="translate(222,210)"/>
<path d="M0 0 C1.32 0.66 2.64 1.32 4 2 C2.625 4 2.625 4 1 6 C0.34 6 -0.32 6 -1 6 C-1.33 6.99 -1.66 7.98 -2 9 C-2.66 7.68 -3.32 6.36 -4 5 C-3.34 5 -2.68 5 -2 5 C-2 4.34 -2 3.68 -2 3 C-1.34 3 -0.68 3 0 3 C0 2.01 0 1.02 0 0 Z " fill="#D45455" transform="translate(223,161)"/>
<path d="M0 0 C2.4375 0.8125 2.4375 0.8125 5 2 C5.33 2.99 5.66 3.98 6 5 C6.66 5 7.32 5 8 5 C8.33 6.65 8.66 8.3 9 10 C5.06451569 6.93906776 2.31883213 4.50884026 0 0 Z " fill="#D26263" transform="translate(207,277)"/>
<path d="M0 0 C2.31 0 4.62 0 7 0 C4.63379989 2.61527381 2.057952 4.26440562 -1 6 C-1.66 5.34 -2.32 4.68 -3 4 C-2.34 4 -1.68 4 -1 4 C-0.67 2.68 -0.34 1.36 0 0 Z " fill="#EAB83D" transform="translate(261,203)"/>
<path d="M0 0 C4.29 0.33 8.58 0.66 13 1 C9.75366476 3.1642235 8.75698557 3.37569856 5 3 C4.01 2.34 3.02 1.68 2 1 C1.67 1.99 1.34 2.98 1 4 C0.67 2.68 0.34 1.36 0 0 Z " fill="#E2C76F" transform="translate(243,204)"/>
<path d="M0 0 C1.32 0 2.64 0 4 0 C3.25 2.4375 3.25 2.4375 2 5 C-0.125 5.8125 -0.125 5.8125 -2 6 C-1.125 1.125 -1.125 1.125 0 0 Z " fill="#46210B" transform="translate(279,195)"/>
<path d="M0 0 C1.10868317 3.32604951 1.54177532 6.53058454 2 10 C1.01 10 0.02 10 -1 10 C-2.1875 7.8125 -2.1875 7.8125 -3 5 C-1.625 2.1875 -1.625 2.1875 0 0 Z " fill="#C12D2B" transform="translate(293,178)"/>
<path d="M0 0 C0 2 0 2 -1.25 3.5 C-3.1352841 5.1159578 -4.66312749 6.15022818 -7 7 C-9.25 6.625 -9.25 6.625 -11 6 C-2 0 -2 0 0 0 Z " fill="#EACF81" transform="translate(267,198)"/>
<path d="M0 0 C0.99 0 1.98 0 3 0 C2.67 2.31 2.34 4.62 2 7 C1.01 7 0.02 7 -1 7 C-0.67 4.69 -0.34 2.38 0 0 Z " fill="#503A32" transform="translate(273,189)"/>
<path d="M0 0 C0.33 0.99 0.66 1.98 1 3 C1.66 3 2.32 3 3 3 C3 4.98 3 6.96 3 9 C2.34 9 1.68 9 1 9 C1 8.34 1 7.68 1 7 C0.34 7 -0.32 7 -1 7 C-0.67 4.69 -0.34 2.38 0 0 Z " fill="#452524" transform="translate(281,168)"/>
<path d="M0 0 C0.66 0 1.32 0 2 0 C2 0.66 2 1.32 2 2 C2.99 2.33 3.98 2.66 5 3 C5 3.66 5 4.32 5 5 C6.45833358 6.62514468 6.45833358 6.62514468 8 8 C7.67 8.99 7.34 9.98 7 11 C5.83051998 9.35616456 4.6644855 7.70987731 3.5 6.0625 C2.8503125 5.14597656 2.200625 4.22945313 1.53125 3.28515625 C0 1 0 1 0 0 Z " fill="#D97574" transform="translate(195,261)"/>
<path d="M0 0 C0.66 0 1.32 0 2 0 C2.17942163 3.94727588 2.09350689 6.5980513 0 10 C-0.66 10 -1.32 10 -2 10 C-1.34 6.7 -0.68 3.4 0 0 Z " fill="#C92D2A" transform="translate(180,173)"/>
<path d="M0 0 C0.99 0 1.98 0 3 0 C2.67 2.31 2.34 4.62 2 7 C1.01 7 0.02 7 -1 7 C-0.67 4.69 -0.34 2.38 0 0 Z " fill="#3E1414" transform="translate(291,173)"/>
<path d="M0 0 C0.33 0 0.66 0 1 0 C1.36923077 5.53846154 1.36923077 5.53846154 -0.5 7.875 C-1.2425 8.431875 -1.2425 8.431875 -2 9 C-2.6875 7.3125 -2.6875 7.3125 -3 5 C-1.625 2.25 -1.625 2.25 0 0 Z " fill="#D52827" transform="translate(292,161)"/>
<path d="M0 0 C0.33 0.99 0.66 1.98 1 3 C1.66 3 2.32 3 3 3 C2.67 4.32 2.34 5.64 2 7 C0.68 6.67 -0.64 6.34 -2 6 C-1.34 4.02 -0.68 2.04 0 0 Z " fill="#D42926" transform="translate(298,146)"/>
<path d="M0 0 C0.33 0.99 0.66 1.98 1 3 C1.99 3 2.98 3 4 3 C3.34 5.31 2.68 7.62 2 10 C1.67 10 1.34 10 1 10 C1 8.35 1 6.7 1 5 C0.34 5 -0.32 5 -1 5 C-0.67 3.35 -0.34 1.7 0 0 Z " fill="#746262" transform="translate(275,184)"/>
<path d="M0 0 C2.15377564 2.62198774 3.40072174 4.64404172 4 8 C2.68 7.67 1.36 7.34 0 7 C-1.125 2.25 -1.125 2.25 0 0 Z " fill="#D15957" transform="translate(317,168)"/>
<path d="M0 0 C1.32 0.66 2.64 1.32 4 2 C2.68 4.31 1.36 6.62 0 9 C-0.66 8.34 -1.32 7.68 -2 7 C-1.67 6.34 -1.34 5.68 -1 5 C-0.34 5 0.32 5 1 5 C0.67 3.35 0.34 1.7 0 0 Z " fill="#6C5D5B" transform="translate(309,144)"/>
<path d="M0 0 C1.98 0.99 3.96 1.98 6 3 C5.34 4.65 4.68 6.3 4 8 C3.67 7.01 3.34 6.02 3 5 C2.34 5 1.68 5 1 5 C0.67 3.35 0.34 1.7 0 0 Z " fill="#C75D5A" transform="translate(298,144)"/>
<path d="M0 0 C0.8125 1.6875 0.8125 1.6875 1 4 C-1.4375 6.75 -1.4375 6.75 -4 9 C-4 5.00095031 -2.27413033 3.19799578 0 0 Z " fill="#D56C6B" transform="translate(190,154)"/>
<path d="M0 0 C0.99 0 1.98 0 3 0 C3 1.32 3 2.64 3 4 C2.34 4 1.68 4 1 4 C0.67 4.99 0.34 5.98 0 7 C-0.66 6.67 -1.32 6.34 -2 6 C-2 5.01 -2 4.02 -2 3 C-1.34 3 -0.68 3 0 3 C0 2.01 0 1.02 0 0 Z " fill="#321715" transform="translate(305,149)"/>
<path d="M0 0 C0 0.99 0 1.98 0 3 C-2.35438733 4.42944945 -3.48032433 5.08661261 -6.25 4.625 C-6.8275 4.41875 -7.405 4.2125 -8 4 C-2.25 0 -2.25 0 0 0 Z " fill="#D15D5F" transform="translate(213,136)"/>
<path d="M0 0 C0.66 0 1.32 0 2 0 C1.49701212 4.40114397 -0.08772731 6.71195019 -3 10 C-2.67 8.02 -2.34 6.04 -2 4 C-1.34 4 -0.68 4 0 4 C0 2.68 0 1.36 0 0 Z " fill="#CF625D" transform="translate(311,245)"/>
<path d="M0 0 C1.98 0.66 3.96 1.32 6 2 C5.67 2.66 5.34 3.32 5 4 C3.68 4 2.36 4 1 4 C0.67 4.66 0.34 5.32 0 6 C-0.66 6 -1.32 6 -2 6 C-1.34 4.02 -0.68 2.04 0 0 Z " fill="#E1BE64" transform="translate(283,195)"/>
<path d="M0 0 C2.75 -0.25 2.75 -0.25 6 0 C8.375 2 8.375 2 10 4 C8.68 4 7.36 4 6 4 C5.34 3.34 4.68 2.68 4 2 C2.68252676 1.30251417 1.35085807 0.63040043 0 0 Z " fill="#C93A38" transform="translate(260,155)"/>
<path d="M0 0 C0.99 0.33 1.98 0.66 3 1 C2.25 2.9375 2.25 2.9375 1 5 C-1.125 5.75 -1.125 5.75 -3 6 C-2.42655063 3.13275314 -2.1385485 2.1385485 0 0 Z " fill="#CD4343" transform="translate(194,150)"/>
<path d="M0 0 C0.99 0 1.98 0 3 0 C2.1875 1.9375 2.1875 1.9375 1 4 C0.01 4.33 -0.98 4.66 -2 5 C-2.99 4.01 -3.98 3.02 -5 2 C-3.35 2 -1.7 2 0 2 C0 1.34 0 0.68 0 0 Z " fill="#CE6E67" transform="translate(251,313)"/>
<path d="M0 0 C1.98 0 3.96 0 6 0 C6.33 1.32 6.66 2.64 7 4 C5.68 4 4.36 4 3 4 C1.25 2 1.25 2 0 0 Z " fill="#F39451" transform="translate(222,224)"/>
<path d="M0 0 C5.75 1.75 5.75 1.75 8 4 C6.02 4.99 6.02 4.99 4 6 C0 1.125 0 1.125 0 0 Z " fill="#D96A6A" transform="translate(281,133)"/>
<path d="M0 0 C2.31 0 4.62 0 7 0 C6.67 1.65 6.34 3.3 6 5 C2.83884224 3.63016497 2.0072908 3.0109362 0 0 Z " fill="#D56261" transform="translate(238,308)"/>
<path d="M0 0 C0.66 0.99 1.32 1.98 2 3 C1.34 3 0.68 3 0 3 C0.33 3.99 0.66 4.98 1 6 C-2.875 4.25 -2.875 4.25 -4 2 C-2.68 1.34 -1.36 0.68 0 0 Z " fill="#D85E5C" transform="translate(237,302)"/>
<path d="M0 0 C0.99 0.33 1.98 0.66 3 1 C3 3.66666667 3 6.33333333 3 9 C0.90250005 6.64031256 0.03094296 5.45383006 -0.1875 2.25 C-0.125625 1.5075 -0.06375 0.765 0 0 Z " fill="#E1BB4A" transform="translate(245,205)"/>
</svg>
