<?xml version="1.0" standalone="no"?>
<!DOCTYPE svg PUBLIC "-//W3C//DTD SVG 20010904//EN"
 "http://www.w3.org/TR/2001/REC-SVG-20010904/DTD/svg10.dtd">
<svg version="1.0" xmlns="http://www.w3.org/2000/svg"
 width="500.000000pt" height="500.000000pt" viewBox="0 0 500.000000 500.000000"
 preserveAspectRatio="xMidYMid meet">

<g transform="translate(0.000000,500.000000) scale(0.100000,-0.100000)"
fill="#000000" stroke="none">
<path d="M2360 3721 c-232 -44 -429 -193 -535 -406 -57 -116 -75 -193 -75
-330 0 -224 85 -439 272 -689 67 -90 369 -395 435 -440 l43 -28 87 73 c317
265 544 572 629 854 23 77 27 108 28 220 0 178 -39 311 -129 437 l-36 50 21
36 22 36 -22 18 c-23 19 -40 23 -40 11 0 -5 -7 -16 -15 -26 -13 -18 -14 -18
-39 0 -31 22 -32 33 -6 83 26 51 25 64 -6 79 -33 15 -39 10 -54 -44 -7 -25
-14 -45 -17 -45 -2 0 -34 15 -71 34 -116 59 -193 78 -327 82 -66 1 -140 -1
-165 -5z m216 -282 c71 -13 159 -58 204 -104 l32 -33 -46 -125 c-25 -68 -46
-127 -46 -131 0 -3 6 -6 14 -6 8 0 34 45 62 110 42 96 49 107 60 92 21 -27 18
-38 -42 -148 -52 -99 -54 -104 -32 -104 18 0 30 14 58 66 49 93 57 96 65 29
21 -163 -78 -335 -234 -409 -61 -29 -74 -31 -171 -31 -98 0 -109 2 -171 32
-82 40 -150 111 -192 201 -29 61 -32 76 -32 162 1 122 25 188 100 268 61 67
136 111 215 128 71 16 85 16 156 3z"/>
<path d="M2580 1571 c-13 -25 -4 -48 21 -56 38 -12 65 35 37 63 -18 18 -46 14
-58 -7z"/>
<path d="M1388 1573 l-28 -4 0 -115 0 -115 43 3 c39 3 42 5 45 35 3 28 7 32
35 35 27 2 32 7 32 28 0 21 -5 26 -32 28 -50 5 -44 32 7 32 39 0 40 1 40 35 0
35 0 35 -44 35 -24 0 -50 2 -58 3 -7 2 -25 2 -40 0z"/>
<path d="M1623 1564 c-41 -21 -63 -54 -65 -102 -3 -75 46 -122 128 -122 62 0
106 30 124 85 10 29 8 41 -9 80 -31 69 -106 94 -178 59z m87 -78 c6 -8 10 -25
8 -38 -2 -18 -9 -23 -33 -23 -24 0 -31 5 -33 23 -4 25 13 52 33 52 7 0 18 -7
25 -14z"/>
<path d="M1889 1557 c-107 -72 -60 -217 71 -217 105 0 162 93 110 178 -37 61
-122 79 -181 39z m95 -73 c19 -18 19 -20 6 -45 -6 -10 -19 -19 -30 -19 -16 0
-40 26 -40 44 0 8 31 36 40 36 5 0 16 -7 24 -16z"/>
<path d="M2129 1570 c-12 -7 -15 -27 -14 -99 3 -149 -8 -134 90 -130 76 4 87
7 112 31 22 23 27 36 27 82 1 64 -25 100 -83 116 -45 12 -111 12 -132 0z m116
-115 c0 -34 -3 -40 -22 -43 -21 -3 -23 1 -23 43 0 42 2 46 23 43 19 -3 22 -9
22 -43z"/>
<path d="M2398 1573 l-28 -4 0 -115 0 -114 40 0 c33 0 40 3 40 19 0 37 12 51
41 51 25 0 29 4 29 29 0 26 -4 30 -32 33 -44 4 -38 22 9 28 34 5 38 8 41 38 3
32 3 32 -42 32 -24 0 -50 2 -58 3 -7 2 -25 2 -40 0z"/>
<path d="M2723 1572 l-33 -3 0 -115 0 -114 40 0 40 0 0 45 c0 25 4 45 8 45 4
0 18 -20 30 -46 22 -45 22 -45 70 -42 l47 3 3 104 c1 58 -2 108 -7 115 -6 7
-25 10 -46 8 -34 -4 -35 -5 -35 -51 l0 -46 -26 47 c-28 49 -39 55 -91 50z"/>
<path d="M2978 1573 c-16 -4 -18 -18 -18 -120 l0 -115 86 3 c82 4 87 5 115 37
58 65 27 168 -59 192 -37 10 -92 12 -124 3z m113 -97 c14 -29 -4 -69 -29 -64
-17 3 -28 47 -18 74 8 22 35 16 47 -10z"/>
<path d="M3443 1573 c-9 -3 -13 -37 -13 -119 l0 -114 40 0 c34 0 40 3 40 20 0
21 0 21 28 0 20 -15 40 -20 63 -18 29 3 34 7 37 31 3 22 -1 30 -17 34 -25 6
-25 11 -6 37 17 23 20 69 5 96 -5 10 -24 23 -41 29 -32 11 -113 14 -136 4z
m98 -78 c-1 -15 -24 -12 -29 3 -3 9 2 13 12 10 10 -1 17 -7 17 -13z"/>
<path d="M3212 1458 l3 -113 90 0 90 0 0 30 c0 29 -2 30 -50 36 l-50 5 40 5
c37 4 40 7 43 37 3 31 3 32 -38 32 -25 0 -39 4 -35 10 3 6 24 10 46 10 37 0
39 2 39 30 l0 30 -90 0 -91 0 3 -112z"/>
<path d="M2574 1477 c-3 -8 -4 -41 -2 -73 l3 -59 37 -3 c32 -3 38 0 43 21 4
13 5 46 3 73 -3 49 -3 49 -41 52 -25 2 -39 -1 -43 -11z"/>
</g>
</svg>
