<?xml version="1.0" standalone="no"?>
<!DOCTYPE svg PUBLIC "-//W3C//DTD SVG 20010904//EN"
 "http://www.w3.org/TR/2001/REC-SVG-20010904/DTD/svg10.dtd">
<svg version="1.0" xmlns="http://www.w3.org/2000/svg"
 width="500.000000pt" height="500.000000pt" viewBox="0 0 500.000000 500.000000"
 preserveAspectRatio="xMidYMid meet">

<g transform="translate(0.000000,500.000000) scale(0.100000,-0.100000)"
fill="#000000" stroke="none">
<path d="M2360 3721 c-232 -44 -429 -193 -535 -406 -57 -116 -75 -193 -75
-330 0 -224 85 -439 272 -689 67 -90 369 -395 435 -440 l43 -28 87 73 c317
265 544 572 629 854 23 77 27 108 28 220 0 178 -39 311 -129 437 l-36 50 21
36 22 36 -22 18 c-23 19 -40 23 -40 11 0 -5 -7 -16 -15 -26 -13 -18 -14 -18
-39 0 -31 22 -32 33 -6 83 26 51 25 64 -6 79 -33 15 -39 10 -54 -44 -7 -25
-14 -45 -17 -45 -2 0 -34 15 -71 34 -116 59 -193 78 -327 82 -66 1 -140 -1
-165 -5z m216 -282 c71 -13 159 -58 204 -104 l32 -33 -46 -125 c-25 -68 -46
-127 -46 -131 0 -3 6 -6 14 -6 8 0 34 45 62 110 42 96 49 107 60 92 21 -27 18
-38 -42 -148 -52 -99 -54 -104 -32 -104 18 0 30 14 58 66 49 93 57 96 65 29
21 -163 -78 -335 -234 -409 -61 -29 -74 -31 -171 -31 -98 0 -109 2 -171 32
-82 40 -150 111 -192 201 -29 61 -32 76 -32 162 1 122 25 188 100 268 61 67
136 111 215 128 71 16 85 16 156 3z"/>
</g>
</svg>
