<?xml version="1.0" encoding="UTF-8"?>
<svg version="1.1" xmlns="http://www.w3.org/2000/svg" width="500" height="500">
<path d="M0 0 C0.66 0 1.32 0 2 0 C3.32 -2.97 4.64 -5.94 6 -9 C8.31 -8.01 10.62 -7.02 13 -6 C12.27991594 -1.39146203 10.68704061 2.67237409 9 7 C10.65 7.99 12.3 8.98 14 10 C14.99 7.525 14.99 7.525 16 5 C21.875 7.75 21.875 7.75 23 10 C22.2575 11.175625 22.2575 11.175625 21.5 12.375 C19.77766741 14.78072186 19.77766741 14.78072186 20.23828125 16.92578125 C21.09087723 19.24746569 22.20261397 20.83654929 23.6875 22.8125 C29.49043703 31.27220338 33.50242236 41.84759053 35 52 C35.10957031 52.73476562 35.21914063 53.46953125 35.33203125 54.2265625 C35.62291616 56.48382938 35.83218051 58.7304412 36 61 C36.05414063 61.6496875 36.10828125 62.299375 36.1640625 62.96875 C37.51755615 94.96041813 17.20667911 124.20642564 -3 147 C-3.72340576 147.81815186 -3.72340576 147.81815186 -4.46142578 148.65283203 C-15.26504602 160.79665723 -26.9615604 171.30528926 -40 181 C-48.32361293 176.09616603 -55.10262012 169.6728626 -62 163 C-62.71462402 162.31260742 -63.42924805 161.62521484 -64.16552734 160.91699219 C-73.91114961 151.50268357 -83.10183496 142.02643305 -91 131 C-91.41652832 130.43313477 -91.83305664 129.86626953 -92.26220703 129.28222656 C-108.8554176 106.55964822 -119.20899236 80.11855124 -115.71582031 51.68701172 C-112.38861142 32.24558601 -101.07271526 14.74305117 -85.30078125 2.98828125 C-59.35235034 -14.07623608 -26.96152153 -16.39221363 0 0 Z M-67.6875 30.3125 C-72.88194323 36.34928537 -77.63557385 42.98208002 -79 51 C-78.62794673 53.19604158 -78.62794673 53.19604158 -78 55 C-77.566875 54.525625 -77.13375 54.05125 -76.6875 53.5625 C-73.58922343 50.6937254 -70.28856546 50.83387487 -66.23046875 50.671875 C-60.1980256 51.55930972 -56.850439 54.95618587 -53.125 59.5 C-47.97164252 65.35749492 -44.62149116 67.35299124 -36.875 68.4375 C-33.09691898 67.86257463 -31.06750654 66.25367827 -28 64 C-26.78030435 63.27547993 -25.55090711 62.56705103 -24.3125 61.875 C-17.36054646 57.93993196 -16.36046509 54.4921407 -13.75 47.1875 C-13.18539062 45.68993164 -13.18539062 45.68993164 -12.609375 44.16210938 C-12.25875 43.19466797 -11.908125 42.22722656 -11.546875 41.23046875 C-11.22557617 40.34770264 -10.90427734 39.46493652 -10.57324219 38.55541992 C-9.92039828 35.64514853 -10.14440631 33.83946941 -11 31 C-16.39163156 24.22878647 -24.66438285 20.65463561 -33 19 C-47.12109807 18.00501748 -56.99191788 21.10932469 -67.6875 30.3125 Z M-6 38 C-8.64 44.27 -11.28 50.54 -14 57 C-13.01 57.33 -12.02 57.66 -11 58 C-8.36 52.72 -5.72 47.44 -3 42 C-3.99 40.68 -4.98 39.36 -6 38 Z M-2 51 C-4.45579697 54.68564084 -4.45579697 54.68564084 -5 59 C-2.525 59.99 -2.525 59.99 0 61 C0 58.03 0 55.06 0 52 C-0.66 51.67 -1.32 51.34 -2 51 Z " fill="#D42B27" transform="translate(290,137)"/>
<path d="M0 0 C0.66 0 1.32 0 2 0 C2.67591324 15.8464105 0.91031209 27.62292403 -10 40 C-17.82346824 47.84007858 -28.46593894 51.42128005 -39.375 51.5 C-45.11042284 51.45402467 -48.93017931 50.46285863 -54 48 C-53.195625 47.195625 -52.39125 46.39125 -51.5625 45.5625 C-48.39188098 41.73058044 -47.5415088 37.92878035 -48 33 C-50.03177731 28.86119436 -51.76814559 26.72380124 -56 25 C-59.7724764 24.34839044 -63.4477817 24.11723737 -66.84765625 26.05078125 C-68.66639294 27.51952805 -68.66639294 27.51952805 -71 30 C-71.66 30.66 -72.32 31.32 -73 32 C-78.8100935 22.7038504 -79.29676458 14.81542017 -79 4 C-78.34 4.66 -77.68 5.32 -77 6 C-76.566875 5.525625 -76.13375 5.05125 -75.6875 4.5625 C-72.56891266 1.67491913 -69.15086767 1.71058934 -65.046875 1.79296875 C-57.27272443 2.57928551 -52.35488958 9.4153651 -47.4375 14.8125 C-43.87219997 18.01212823 -40.68083033 18.78989621 -36 19.375 C-32.10233557 18.88779195 -30.15079247 17.31486794 -27 15 C-23.76091224 13.01363635 -20.62064883 11.20688294 -17 10 C-16.01 10.33 -15.02 10.66 -14 11 C-13.67 10.34 -13.34 9.68 -13 9 C-12.01 9.66 -11.02 10.32 -10 11 C-10.66 12.65 -11.32 14.3 -12 16 C-8.17053157 14.54744301 -6.87949705 12.57104439 -5 9 C-4.505 9.99 -4.505 9.99 -4 11 C-1.97536745 11.65213292 -1.97536745 11.65213292 0 12 C0 10.7625 0 9.525 0 8.25 C0 5.5 0 2.75 0 0 Z " fill="#E9B53D" transform="translate(289,185)"/>
<path d="M0 0 C3.86184826 1.82929654 5.47015759 2.94031518 7.375 6.75 C7.58125 7.4925 7.7875 8.235 8 9 C8.5775 8.071875 9.155 7.14375 9.75 6.1875 C11.81023201 3.26883798 13.00157941 1.79379197 16 0 C20.64432556 -0.7762104 25.69948931 -1.06683988 30.046875 0.94921875 C33.21028386 3.43139847 35.18195035 6.09154055 36 10 C36.06047352 14.2417854 35.4705567 17.22694256 33.25 20.875 C29.25350736 24.64946527 25.56683136 25.47259446 20.05859375 25.31640625 C16.31801713 24.74147891 14.07017445 23.22738146 11 21 C9.0625 18.25 9.0625 18.25 8 16 C7.5875 16.763125 7.175 17.52625 6.75 18.3125 C4.32798993 22.03201546 2.1882424 23.6039192 -2 25 C-8.06704622 25.45789028 -12.09519362 24.4039777 -16.8125 20.5 C-19.57352978 17.01238343 -19.28744224 13.23977305 -19 9 C-17.76904667 5.63107509 -16.61260063 3.57431309 -14 1.125 C-9.33881598 -0.62294401 -4.91225623 -0.64824496 0 0 Z M-7 9 C-7.66 10.32 -8.32 11.64 -9 13 C-8.01 14.485 -8.01 14.485 -7 16 C-5.68 15.67 -4.36 15.34 -3 15 C-2.3185177 13.10820797 -2.3185177 13.10820797 -2 11 C-2.66 10.34 -3.32 9.68 -4 9 C-4.99 9 -5.98 9 -7 9 Z M20 9 C19.67 10.65 19.34 12.3 19 14 C20.98 14.99 20.98 14.99 23 16 C23.66 15.34 24.32 14.68 25 14 C25 12.68 25 11.36 25 10 C23.35 9.67 21.7 9.34 20 9 Z " fill="#222222" transform="translate(174,342)"/>
<path d="M0 0 C3.465 1.485 3.465 1.485 7 3 C6.27991594 7.60853797 4.68704061 11.67237409 3 16 C4.65 16.99 6.3 17.98 8 19 C8.66 17.35 9.32 15.7 10 14 C15.875 16.75 15.875 16.75 17 19 C15.75551115 21.16486022 14.46561314 23.19093285 13.0625 25.25 C9.81826376 30.13921003 6.74000041 35.06649852 3.875 40.1875 C1.45631281 44.5021742 -1.05854253 48.72328368 -3.75 52.875 C-5.73505118 55.93790703 -7.54857264 58.95841968 -9.125 62.25 C-11.03130512 66.20987844 -13.22277456 69.58187638 -16 73 C-16.99 73 -17.98 73 -19 73 C-18.36111113 67.93959451 -16.13720723 63.71988466 -13.9375 59.1875 C-13.56044922 58.39923828 -13.18339844 57.61097656 -12.79492188 56.79882812 C-11.86829839 54.86347527 -10.93482533 52.93140451 -10 51 C-10.66 50.34 -11.32 49.68 -12 49 C-14.31 54.61 -16.62 60.22 -19 66 C-19.66 66 -20.32 66 -21 66 C-21 66.66 -21 67.32 -21 68 C-21.99 68 -22.98 68 -24 68 C-23.42559984 62.17837676 -21.780955 57.29302694 -19.625 51.875 C-18.9044837 50.02231589 -18.18446079 48.16943984 -17.46484375 46.31640625 C-17.07280762 45.31367676 -16.68077148 44.31094727 -16.27685547 43.27783203 C-14.13092569 37.76898821 -12.01959736 32.24707863 -9.91595459 26.72198486 C-9.20392552 24.85555592 -8.48702911 22.99098614 -7.77001953 21.12646484 C-5.46020524 15.07123121 -3.30707377 9.04585428 -1.5715332 2.79956055 C-1 1 -1 1 0 0 Z " fill="#51120F" transform="translate(296,128)"/>
<path d="M0 0 C3.8421976 2.53421544 6.79608615 5.59791285 9.9375 8.9375 C10.865625 9.865625 11.79375 10.79375 12.75 11.75 C14.14583333 13.14583333 15.54166667 14.54166667 16.9375 15.9375 C15.9475 15.9375 14.9575 15.9375 13.9375 15.9375 C14.2984375 16.59234375 14.659375 17.2471875 15.03125 17.921875 C18.63453908 25.00834352 20.18178286 30.99831467 18.9375 38.9375 C17.86783966 41.91694018 16.60887755 44.22151148 14.9375 46.9375 C9.39903846 47.30673077 9.39903846 47.30673077 7.0625 45.4375 C6.69125 44.9425 6.32 44.4475 5.9375 43.9375 C6.741875 43.298125 7.54625 42.65875 8.375 42 C11.28292965 38.52466944 11.87559399 36.57343358 12.140625 32.15625 C11.81220085 28.56884774 10.30631523 26.56240336 7.9375 23.9375 C3.74865543 21.40145632 -0.28187199 21.10068297 -5.0625 21.9375 C-7.54437968 23.34897068 -9.03104575 24.85649809 -11.0625 26.9375 C-11.7225 27.5975 -12.3825 28.2575 -13.0625 28.9375 C-18.8725935 19.6413504 -19.35926458 11.75292017 -19.0625 0.9375 C-18.4025 1.5975 -17.7425 2.2575 -17.0625 2.9375 C-16.629375 2.463125 -16.19625 1.98875 -15.75 1.5 C-11.47493428 -2.45839419 -5.13220043 -1.78055933 0 0 Z " fill="#E9E8E6" transform="translate(229.0625,188.0625)"/>
<path d="M0 0 C0.79148437 -0.02578125 1.58296875 -0.0515625 2.3984375 -0.078125 C5.13839838 0.32565871 5.92916395 1.11087549 7.625 3.25 C8.8125 5.4375 8.8125 5.4375 9.625 7.25 C9.955 4.94 10.285 2.63 10.625 0.25 C16.77734375 0.15234375 16.77734375 0.15234375 18.625 0.25 C19.625 1.25 19.625 1.25 19.73852539 3.47485352 C19.73328857 4.43319092 19.72805176 5.39152832 19.72265625 6.37890625 C19.71943359 7.41337891 19.71621094 8.44785156 19.71289062 9.51367188 C19.70451172 10.60228516 19.69613281 11.69089844 19.6875 12.8125 C19.68298828 13.90498047 19.67847656 14.99746094 19.67382812 16.12304688 C19.66199826 18.83208495 19.64551543 21.54101599 19.625 24.25 C15.58069917 25.14111713 12.65681352 25.47707368 8.625 24.25 C6.75 21.6875 6.75 21.6875 5.625 19.25 C5.50125 20.054375 5.3775 20.85875 5.25 21.6875 C5.04375 22.533125 4.8375 23.37875 4.625 24.25 C1.86249964 25.63125018 -0.32231099 25.44079306 -3.375 25.25 C-5.375 23.25 -5.375 23.25 -5.61791992 21.01928711 C-5.61381104 20.1144458 -5.60970215 19.20960449 -5.60546875 18.27734375 C-5.60353516 17.29572266 -5.60160156 16.31410156 -5.59960938 15.30273438 C-5.58736328 14.27470703 -5.57511719 13.24667969 -5.5625 12.1875 C-5.56185547 11.15560547 -5.56121094 10.12371094 -5.56054688 9.06054688 C-5.50756697 0.10694305 -5.50756697 0.10694305 0 0 Z " fill="#1F1F1F" transform="translate(273.375,341.75)"/>
<path d="M0 0 C1.31355469 -0.03738281 2.62710938 -0.07476562 3.98046875 -0.11328125 C8.3752664 0.3750296 10.42555633 1.52767965 13.8125 4.3125 C16.78557695 8.77211542 16.43265709 13.08327414 15.8125 18.3125 C13.50545074 22.49936718 11.28199678 23.89519087 6.8125 25.3125 C3.296875 25.54296875 3.296875 25.54296875 -0.4375 25.5 C-2.30148438 25.49033203 -2.30148438 25.49033203 -4.203125 25.48046875 C-7.1875 25.3125 -7.1875 25.3125 -8.1875 24.3125 C-8.28682153 22.61691274 -8.31830007 20.91724253 -8.3203125 19.21875 C-8.32224609 17.67380859 -8.32224609 17.67380859 -8.32421875 16.09765625 C-8.32035156 15.01355469 -8.31648437 13.92945313 -8.3125 12.8125 C-8.31636719 11.72839844 -8.32023438 10.64429688 -8.32421875 9.52734375 C-8.32292969 8.49738281 -8.32164062 7.46742188 -8.3203125 6.40625 C-8.31918457 5.45427734 -8.31805664 4.50230469 -8.31689453 3.52148438 C-8.03785454 -1.24220217 -3.79972884 0.05402458 0 0 Z M1.8125 8.3125 C1.8125 10.9525 1.8125 13.5925 1.8125 16.3125 C3.1325 15.9825 4.4525 15.6525 5.8125 15.3125 C5.8125 13.6625 5.8125 12.0125 5.8125 10.3125 C4.4925 9.6525 3.1725 8.9925 1.8125 8.3125 Z " fill="#202020" transform="translate(219.1875,341.6875)"/>
<path d="M0 0 C0.66902344 -0.020625 1.33804687 -0.04125 2.02734375 -0.0625 C6.49819697 -0.09763441 9.19033466 0.54869367 12.75 3.25 C13.33910156 3.68570312 13.92820312 4.12140625 14.53515625 4.5703125 C17.26677928 8.34715463 16.28663486 13.83766894 15.75 18.25 C13.46563838 22.4802993 11.2265409 23.79985295 6.75 25.25 C3.48828125 25.515625 3.48828125 25.515625 0.0625 25.5 C-1.07574219 25.50515625 -2.21398437 25.5103125 -3.38671875 25.515625 C-6.25 25.25 -6.25 25.25 -8.25 23.25 C-8.49291992 21.01928711 -8.49291992 21.01928711 -8.48046875 18.27734375 C-8.47853516 17.29572266 -8.47660156 16.31410156 -8.47460938 15.30273438 C-8.46236328 14.27470703 -8.45011719 13.24667969 -8.4375 12.1875 C-8.43685547 11.15560547 -8.43621094 10.12371094 -8.43554688 9.06054688 C-8.38704532 0.86378435 -8.33807752 0.06281038 0 0 Z M1.75 8.25 C1.75 10.89 1.75 13.53 1.75 16.25 C3.07 15.92 4.39 15.59 5.75 15.25 C5.75 13.27 5.75 11.29 5.75 9.25 C4.43 8.92 3.11 8.59 1.75 8.25 Z " fill="#1F1F1F" transform="translate(303.25,341.75)"/>
<path d="M0 0 C0.66902344 -0.020625 1.33804687 -0.04125 2.02734375 -0.0625 C6.46419376 -0.09736719 9.2300164 0.52399767 12.75 3.25 C13.99921469 5.74842937 13.67338287 7.00550804 13.3125 9.75 C12.51521009 14.76082583 12.51521009 14.76082583 14.75 19.25 C14.5 21.875 14.5 21.875 13.75 24.25 C10.97899606 25.63550197 8.8165294 25.4377467 5.75 25.25 C4.76 24.59 3.77 23.93 2.75 23.25 C1.945625 23.7759375 1.945625 23.7759375 1.125 24.3125 C-2.00581529 25.54834814 -4.02647716 25.03797225 -7.25 24.25 C-8.90394117 22.59605883 -8.37999683 20.64684587 -8.3828125 18.375 C-8.38410156 17.39015625 -8.38539063 16.4053125 -8.38671875 15.390625 C-8.38285156 14.35421875 -8.37898438 13.3178125 -8.375 12.25 C-8.38080078 10.69539063 -8.38080078 10.69539063 -8.38671875 9.109375 C-8.38542969 8.12453125 -8.38414062 7.1396875 -8.3828125 6.125 C-8.38168457 5.21492188 -8.38055664 4.30484375 -8.37939453 3.3671875 C-8.0921422 -1.33291098 -3.71316651 0.02797112 0 0 Z M1.75 7.25 C2.08 8.24 2.41 9.23 2.75 10.25 C3.08 9.26 3.41 8.27 3.75 7.25 C3.09 7.25 2.43 7.25 1.75 7.25 Z " fill="#212121" transform="translate(350.25,341.75)"/>
<path d="M0 0 C2.25459875 1.45757352 3.77987851 2.75116327 4.98828125 5.16796875 C6.18699733 16.29023312 6.18699733 16.29023312 3.75390625 20.1015625 C-0.84577856 23.9384283 -5.20482443 24.5616565 -11.01171875 24.16796875 C-14.60642178 22.71626176 -17.58131845 21.23794808 -20.01171875 18.16796875 C-21.58905049 13.43597354 -21.53929223 9.61185407 -19.82421875 4.91796875 C-15.46843244 -1.69081048 -7.26079384 -3.00300794 0 0 Z M-9.01171875 8.16796875 C-9.67171875 9.48796875 -10.33171875 10.80796875 -11.01171875 12.16796875 C-10.02171875 13.65296875 -10.02171875 13.65296875 -9.01171875 15.16796875 C-7.69171875 14.83796875 -6.37171875 14.50796875 -5.01171875 14.16796875 C-4.33023645 12.27617672 -4.33023645 12.27617672 -4.01171875 10.16796875 C-4.67171875 9.50796875 -5.33171875 8.84796875 -6.01171875 8.16796875 C-7.00171875 8.16796875 -7.99171875 8.16796875 -9.01171875 8.16796875 Z " fill="#1B1B1B" transform="translate(176.01171875,342.83203125)"/>
<path d="M0 0 C5.94 0 11.88 0 18 0 C19 7 19 7 18 9 C18 10.010625 18 11.02125 18 12.0625 C18 13.031875 18 14.00125 18 15 C17.67 15.33 17.34 15.66 17 16 C17.66 16.33 18.32 16.66 19 17 C19.04241723 19.33294775 19.04092937 21.66702567 19 24 C18 25 18 25 15.234375 25.1328125 C13.50960938 25.12894531 13.50960938 25.12894531 11.75 25.125 C10.04070312 25.12886719 10.04070312 25.12886719 8.296875 25.1328125 C5.3773332 25.01520063 2.80502702 24.80874867 0 24 C-1.54835926 20.90328147 -1.14325002 17.64450461 -1.125 14.25 C-1.12886719 13.54617188 -1.13273437 12.84234375 -1.13671875 12.1171875 C-1.13542969 11.42367188 -1.13414062 10.73015625 -1.1328125 10.015625 C-1.13112061 9.07638184 -1.13112061 9.07638184 -1.12939453 8.11816406 C-0.96280541 5.39113164 -0.4491571 2.69494261 0 0 Z " fill="#252525" transform="translate(321,342)"/>
<path d="M0 0 C4.57015831 1.82806332 6.87647372 4.58959926 9 9 C9.34258328 13.62487424 8.5833236 17.03449886 6.1875 21 C3.89969041 23.09171163 3.01731412 23.67889134 0 24 C-7.12918969 20.91783152 -12.1974086 14.88873605 -17 9 C-12.62620954 1.46458386 -8.74624017 -1.29042888 0 0 Z " fill="#E89943" transform="translate(233,209)"/>
<path d="M0 0 C1.58206057 0.00667536 3.16410534 0.0186375 4.74609375 0.03515625 C5.55240234 0.03966797 6.35871094 0.04417969 7.18945312 0.04882812 C9.18753131 0.06065107 11.18557158 0.07858711 13.18359375 0.09765625 C13.51359375 2.40765625 13.84359375 4.71765625 14.18359375 7.09765625 C11.87359375 7.75765625 9.56359375 8.41765625 7.18359375 9.09765625 C9.65859375 10.08765625 9.65859375 10.08765625 12.18359375 11.09765625 C12.22613731 13.09720371 12.22440158 15.09807261 12.18359375 17.09765625 C11.18359375 18.09765625 11.18359375 18.09765625 8.12109375 18.16015625 C7.15171875 18.13953125 6.18234375 18.11890625 5.18359375 18.09765625 C5.18359375 20.07765625 5.18359375 22.05765625 5.18359375 24.09765625 C-1.44140625 25.22265625 -1.44140625 25.22265625 -4.81640625 24.09765625 C-4.84527861 20.28517199 -4.86316117 16.47271555 -4.87890625 12.66015625 C-4.88728516 11.57154297 -4.89566406 10.48292969 -4.90429688 9.36132812 C-4.90751953 8.32685547 -4.91074219 7.29238281 -4.9140625 6.2265625 C-4.91929932 5.2682251 -4.92453613 4.3098877 -4.92993164 3.32250977 C-4.73433141 -0.51083405 -4.03367373 0.10321581 0 0 Z " fill="#2A2A2A" transform="translate(240.81640625,341.90234375)"/>
<path d="M0 0 C0.66 0 1.32 0 2 0 C2.67591324 15.8464105 0.91031209 27.62292403 -10 40 C-17.31910026 47.33463975 -27.34591432 51.20083132 -37.61914062 51.33837891 C-40.75350792 51.30139728 -43.87050185 51.18077974 -47 51 C-46.01 50.505 -46.01 50.505 -45 50 C-41.84706921 42.95227236 -40.17007261 35.03429806 -42.89453125 27.5390625 C-43.87996302 25.66569751 -44.93550695 23.82959742 -46 22 C-46 21.01 -46 20.02 -46 19 C-44.69675781 19.06960937 -44.69675781 19.06960937 -43.3671875 19.140625 C-34.4742388 19.46004935 -34.4742388 19.46004935 -27 15 C-23.77715763 12.99358837 -20.61482192 11.20494064 -17 10 C-18 13 -18 13 -21 14.5625 C-21.99 15.036875 -22.98 15.51125 -24 16 C-24.33 16.66 -24.66 17.32 -25 18 C-25.99 18.33 -26.98 18.66 -28 19 C-28.12375 19.804375 -28.2475 20.60875 -28.375 21.4375 C-28.58125 22.283125 -28.7875 23.12875 -29 24 C-31.52475462 25.26237731 -33.31200466 25.09856404 -36.125 25.0625 C-37.03507813 25.05347656 -37.94515625 25.04445312 -38.8828125 25.03515625 C-39.93082031 25.01775391 -39.93082031 25.01775391 -41 25 C-40.67 25.66 -40.34 26.32 -40 27 C-39.87458714 29.57533857 -39.81482244 32.11191813 -39.8125 34.6875 C-39.80025391 35.38294922 -39.78800781 36.07839844 -39.77539062 36.79492188 C-39.76203075 41.56439658 -40.49838157 45.4714037 -42 50 C-37.26907136 49.52744911 -37.26907136 49.52744911 -32.875 47.875 C-30.30575504 46.67601902 -28.66750795 47.25902557 -26 48 C-26 47.34 -26 46.68 -26 46 C-25.34 46 -24.68 46 -24 46 C-23.67 45.01 -23.34 44.02 -23 43 C-20.56640625 41.61328125 -20.56640625 41.61328125 -17.5625 40.3125 C-16.57378906 39.87550781 -15.58507812 39.43851563 -14.56640625 38.98828125 C-12 38 -12 38 -10 38 C-10 37.01 -10 36.02 -10 35 C-10.99 34.505 -10.99 34.505 -12 34 C-10.35 34 -8.7 34 -7 34 C-7 33.01 -7 32.02 -7 31 C-6.34 31 -5.68 31 -5 31 C-2.96834048 26.66579301 -2.47939368 22.71403788 -2 18 C-3.98 17.67 -5.96 17.34 -8 17 C-7.50168276 13.31245243 -6.89932357 11.39509338 -4 9 C-4 9.66 -4 10.32 -4 11 C-2.68 11.33 -1.36 11.66 0 12 C0 10.7625 0 9.525 0 8.25 C0 5.5 0 2.75 0 0 Z " fill="#F4A44D" transform="translate(289,185)"/>
<path d="M0 0 C2.81256281 -0.02684312 5.62487241 -0.04676188 8.4375 -0.0625 C9.23994141 -0.07087891 10.04238281 -0.07925781 10.86914062 -0.08789062 C12.91295221 -0.0965143 14.95683902 -0.0522815 17 0 C18 1 18 1 18.0625 4.0625 C18.041875 5.031875 18.02125 6.00125 18 7 C15.69 7.66 13.38 8.32 11 9 C13.475 9.99 13.475 9.99 16 11 C16.04254356 12.99954746 16.04080783 15.00041636 16 17 C15 18 15 18 11.9375 18.0625 C10.968125 18.041875 9.99875 18.02125 9 18 C9 19.98 9 21.96 9 24 C5.6875 24.6875 5.6875 24.6875 2 25 C0.29003906 23.80688477 0.29003906 23.80688477 -1 22 C-1.35644531 19.85522461 -1.35644531 19.85522461 -1.328125 17.40234375 C-1.32296875 16.51869141 -1.3178125 15.63503906 -1.3125 14.72460938 C-1.291875 13.80486328 -1.27125 12.88511719 -1.25 11.9375 C-1.24484375 11.01388672 -1.2396875 10.09027344 -1.234375 9.13867188 C-1.15455544 2.30911088 -1.15455544 2.30911088 0 0 Z " fill="#282828" transform="translate(136,342)"/>
<path d="M0 0 C5.875 2.75 5.875 2.75 7 5 C5.75551115 7.16486022 4.46561314 9.19093285 3.0625 11.25 C-0.18173624 16.13921003 -3.25999959 21.06649852 -6.125 26.1875 C-8.54368719 30.5021742 -11.05854253 34.72328368 -13.75 38.875 C-15.73505118 41.93790703 -17.54857264 44.95841968 -19.125 48.25 C-21.03130512 52.20987844 -23.22277456 55.58187638 -26 59 C-26.99 59 -27.98 59 -29 59 C-28.37534462 54.41626119 -26.5247962 50.6309587 -24.4375 46.5625 C-24.08107422 45.85802734 -23.72464844 45.15355469 -23.35742188 44.42773438 C-20.42901721 38.69958957 -17.24831144 33.14768543 -14.015625 27.5859375 C-10.73273495 21.83927379 -7.86088234 15.87601137 -4.95117188 9.93457031 C-3.31860753 6.61412887 -1.65765411 3.30797346 0 0 Z " fill="#4E120E" transform="translate(306,142)"/>
<path d="M0 0 C1.65 0 3.3 0 5 0 C4.01 0.33 3.02 0.66 2 1 C2.3609375 1.65484375 2.721875 2.3096875 3.09375 2.984375 C6.69703908 10.07084352 8.24428286 16.06081467 7 24 C5.93033966 26.97944018 4.67137755 29.28401148 3 32 C-2.53846154 32.36923077 -2.53846154 32.36923077 -4.875 30.5 C-5.24625 30.005 -5.6175 29.51 -6 29 C-5.195625 28.360625 -4.39125 27.72125 -3.5625 27.0625 C-0.65457035 23.58716944 -0.06190601 21.63593358 0.203125 17.21875 C-0.12529915 13.63134774 -1.63118477 11.62490336 -4 9 C-6.91109919 7.23364595 -9.37646038 6.67266526 -12.75 6.375 C-13.94882813 6.26285156 -13.94882813 6.26285156 -15.171875 6.1484375 C-15.77515625 6.09945312 -16.3784375 6.05046875 -17 6 C-17 5.34 -17 4.68 -17 4 C-13.7 4 -10.4 4 -7 4 C-7 4.66 -7 5.32 -7 6 C-5.576875 6.2165625 -5.576875 6.2165625 -4.125 6.4375 C-1 7 -1 7 1 8 C0.67 5.36 0.34 2.72 0 0 Z " fill="#EDE2D8" transform="translate(241,203)"/>
<path d="M0 0 C3.465 1.98 3.465 1.98 7 4 C4.65272925 10.12816606 1.57120224 15.86409927 -1.4375 21.6875 C-2.02337891 22.84056641 -2.60925781 23.99363281 -3.21289062 25.18164062 C-3.78072266 26.28056641 -4.34855469 27.37949219 -4.93359375 28.51171875 C-5.7078772 30.01931763 -5.7078772 30.01931763 -6.49780273 31.55737305 C-8 34 -8 34 -11 36 C-12.48101291 33.12174407 -13.16210804 31.64307981 -12.35668945 28.44799805 C-11.94636475 27.56152588 -11.53604004 26.67505371 -11.11328125 25.76171875 C-10.66919922 24.77623047 -10.22511719 23.79074219 -9.76757812 22.77539062 C-9.04731445 21.24688477 -9.04731445 21.24688477 -8.3125 19.6875 C-7.39020862 17.67135815 -6.4696023 15.65444451 -5.55078125 13.63671875 C-4.89070068 12.20078369 -4.89070068 12.20078369 -4.21728516 10.73583984 C-2.64705653 7.20676202 -1.29912503 3.63668111 0 0 Z " fill="#B72E2C" transform="translate(297,143)"/>
<path d="M0 0 C0 0.99 0 1.98 0 3 C-0.969375 3.45375 -1.93875 3.9075 -2.9375 4.375 C-6.07079582 5.65786221 -6.07079582 5.65786221 -7 8 C-7.99 8.33 -8.98 8.66 -10 9 C-10.12375 9.804375 -10.2475 10.60875 -10.375 11.4375 C-10.684375 12.7059375 -10.684375 12.7059375 -11 14 C-13.52475462 15.26237731 -15.31200466 15.09856404 -18.125 15.0625 C-19.03507813 15.05347656 -19.94515625 15.04445312 -20.8828125 15.03515625 C-21.58148438 15.02355469 -22.28015625 15.01195312 -23 15 C-22.67 15.66 -22.34 16.32 -22 17 C-21.4972014 25.45088408 -21.13617197 33.27234393 -25 41 C-26.32 40.67 -27.64 40.34 -29 40 C-28.34 40 -27.68 40 -27 40 C-24.06193782 32.75277995 -22.1042998 25.21524509 -24.89453125 17.5390625 C-25.87996302 15.66569751 -26.93550695 13.82959742 -28 12 C-28 11.01 -28 10.02 -28 9 C-26.69675781 9.06960937 -26.69675781 9.06960937 -25.3671875 9.140625 C-16.4742388 9.46004935 -16.4742388 9.46004935 -9 5 C-7.76493086 4.24581948 -6.51416606 3.51682109 -5.25 2.8125 C-4.1775 2.214375 -3.105 1.61625 -2 1 C-1.34 0.67 -0.68 0.34 0 0 Z " fill="#EBB842" transform="translate(271,195)"/>
<path d="M0 0 C2.64 0.33 5.28 0.66 8 1 C8 5.95 8 10.9 8 16 C5.03 16 2.06 16 -1 16 C-2.10852275 11.56590901 -2.21993456 7.54531422 -2 3 C-1.34 2.01 -0.68 1.02 0 0 Z " fill="#272727" transform="translate(258,350)"/>
<path d="M0 0 C5.875 2.75 5.875 2.75 7 5 C5.71389867 6.9829888 4.42150861 8.96133376 3.125 10.9375 C2.40570313 12.03964844 1.68640625 13.14179688 0.9453125 14.27734375 C-1 17 -1 17 -3 18 C-3.99 17.01 -4.98 16.02 -6 15 C-6.33 15.99 -6.66 16.98 -7 18 C-7.33 17.34 -7.66 16.68 -8 16 C-7.109375 14.08203125 -7.109375 14.08203125 -5.75 11.8125 C-3.50896624 7.95467587 -1.67091651 4.13331979 0 0 Z " fill="#461210" transform="translate(306,142)"/>
<path d="M0 0 C1.65 0 3.3 0 5 0 C4.01 0.33 3.02 0.66 2 1 C2.3609375 1.65484375 2.721875 2.3096875 3.09375 2.984375 C6.77508537 10.22433456 7.63353803 15.93294914 7 24 C6.67 24 6.34 24 6 24 C5.93941406 23.22914063 5.87882812 22.45828125 5.81640625 21.6640625 C5.69072266 20.15972656 5.69072266 20.15972656 5.5625 18.625 C5.48128906 17.62726563 5.40007812 16.62953125 5.31640625 15.6015625 C5.15034374 13.02072387 5.15034374 13.02072387 4 11 C2.26043342 12.73956658 2.62809614 15.1936622 2.4375 17.5625 C2.35371094 18.57441406 2.26992187 19.58632812 2.18359375 20.62890625 C2.09271484 21.80259766 2.09271484 21.80259766 2 23 C1.34 23 0.68 23 0 23 C0.0825 21.80375 0.165 20.6075 0.25 19.375 C0.25 14.89592759 -1.05279954 12.43840054 -4 9 C-6.90617421 7.22674116 -9.37830228 6.67250274 -12.75 6.375 C-13.94882813 6.26285156 -13.94882813 6.26285156 -15.171875 6.1484375 C-15.77515625 6.09945312 -16.3784375 6.05046875 -17 6 C-17 5.34 -17 4.68 -17 4 C-13.7 4 -10.4 4 -7 4 C-7 4.66 -7 5.32 -7 6 C-5.576875 6.2165625 -5.576875 6.2165625 -4.125 6.4375 C-1 7 -1 7 1 8 C0.67 5.36 0.34 2.72 0 0 Z " fill="#F1DFCA" transform="translate(241,203)"/>
<path d="M0 0 C0.33 0.66 0.66 1.32 1 2 C1.66 2 2.32 2 3 2 C4.596892 6.77242581 3.10159349 9.97998408 1.0625 14.3125 C0.77181641 14.95767578 0.48113281 15.60285156 0.18164062 16.26757812 C-0.53361087 17.85051177 -1.26520324 19.42604405 -2 21 C-2.66 21 -3.32 21 -4 21 C-4 21.66 -4 22.32 -4 23 C-4.99 23 -5.98 23 -7 23 C-6.42389687 17.45044957 -4.97901452 12.73970503 -2.9375 7.5625 C-2.65583984 6.83095703 -2.37417969 6.09941406 -2.08398438 5.34570312 C-1.39586753 3.56126454 -0.69885394 1.78026095 0 0 Z " fill="#4A3633" transform="translate(279,173)"/>
<path d="M0 0 C3.465 1.485 3.465 1.485 7 3 C6.33501617 7.38889325 4.81242323 10.9811485 3 15 C0 15 0 15 -2 14 C-2 13.34 -2 12.68 -2 12 C-2.66 11.67 -3.32 11.34 -4 11 C-3.5247412 9.35303396 -3.04468109 7.70745272 -2.5625 6.0625 C-2.29566406 5.14597656 -2.02882813 4.22945312 -1.75390625 3.28515625 C-1 1 -1 1 0 0 Z " fill="#483030" transform="translate(296,128)"/>
<path d="M0 0 C1.32 0.66 2.64 1.32 4 2 C0.89883071 7.7061515 0.89883071 7.7061515 -3.25 9.0625 C-4.4875 9.371875 -5.725 9.68125 -7 10 C-9.76943281 11.51809539 -12.38995506 13.22381357 -15 15 C-15.66 14.34 -16.32 13.68 -17 13 C-16.34 13 -15.68 13 -15 13 C-14.67 11.68 -14.34 10.36 -14 9 C-13.01 9 -12.02 9 -11 9 C-10.67 8.01 -10.34 7.02 -10 6 C-8.4765625 4.83203125 -8.4765625 4.83203125 -6.625 3.8125 C-6.01914062 3.46832031 -5.41328125 3.12414062 -4.7890625 2.76953125 C-3 2 -3 2 0 2 C0 1.34 0 0.68 0 0 Z " fill="#E4B948" transform="translate(275,194)"/>
<path d="M0 0 C1.13464969 3.41993666 1.01163545 3.97070417 -0.42578125 7.58984375 C-3.1759713 15.22682567 -2.31155628 23.56438073 -2.1875 31.5625 C-2.17242858 33.2558475 -2.15874451 34.94920794 -2.14648438 36.64257812 C-2.11366704 40.76204222 -2.06202063 44.8808763 -2 49 C-8.57561962 36.4561004 -5.79535512 18.03915627 -1.97265625 4.95703125 C-1 2 -1 2 0 0 Z " fill="#D66F6E" transform="translate(179,173)"/>
<path d="M0 0 C0.66 0 1.32 0 2 0 C0.9706067 7.24638702 -0.67600283 13.46495702 -4 20 C-4.66 20 -5.32 20 -6 20 C-6 19.34 -6 18.68 -6 18 C-6.66 18 -7.32 18 -8 18 C-7.6875 14.625 -7.6875 14.625 -7 11 C-6.01 10.34 -5.02 9.68 -4 9 C-3.03355976 7.08418896 -3.03355976 7.08418896 -2.375 4.9375 C-1.07629428 1.07629428 -1.07629428 1.07629428 0 0 Z " fill="#411413" transform="translate(288,157)"/>
<path d="M0 0 C-0.99 0.33 -1.98 0.66 -3 1 C-2.67 1.99 -2.34 2.98 -2 4 C-3.74802146 4.81674796 -5.49850189 5.62823451 -7.25 6.4375 C-8.22453125 6.88996094 -9.1990625 7.34242188 -10.203125 7.80859375 C-14.75821324 9.74895955 -18.28469466 10.11647071 -23.25 10.0625 C-24.32765625 10.05347656 -25.4053125 10.04445312 -26.515625 10.03515625 C-27.33546875 10.02355469 -28.1553125 10.01195312 -29 10 C-29 9.67 -29 9.34 -29 9 C-27.7625 8.87625 -26.525 8.7525 -25.25 8.625 C-22.71736872 8.32233053 -21.0989985 8.05091351 -18.8125 6.875 C-16.2848933 5.65477608 -14.63509593 6.26802891 -12 7 C-12 6.34 -12 5.68 -12 5 C-11.34 5 -10.68 5 -10 5 C-9.67 4.01 -9.34 3.02 -9 2 C-3.69230769 -1.23076923 -3.69230769 -1.23076923 0 0 Z " fill="#F5A448" transform="translate(275,226)"/>
<path d="M0 0 C1.65 0.33 3.3 0.66 5 1 C3.63923558 6.44305768 0.96068133 11.0292406 -3 15 C-3.99 15 -4.98 15 -6 15 C-5.39644592 11.14974121 -4.23227397 8.13898841 -2.4375 4.6875 C-1.98246094 3.80449219 -1.52742188 2.92148438 -1.05859375 2.01171875 C-0.53458984 1.01591797 -0.53458984 1.01591797 0 0 Z " fill="#482B1D" transform="translate(283,186)"/>
<path d="M0 0 C0.495 0.99 0.495 0.99 1 2 C-0.216875 1.67 -1.43375 1.34 -2.6875 1 C-12.18270286 -1.090139 -21.63548085 -0.36755337 -31 2 C-31 -1 -31 -1 -30 -2 C-20.10403604 -3.46006026 -9.20279563 -4.76534311 0 0 Z " fill="#CE5A57" transform="translate(265,157)"/>
<path d="M0 0 C1.9375 0.75 1.9375 0.75 3.9375 2.75 C3.38194444 7.30555556 3.38194444 7.30555556 1.9375 8.75 C-1.0625 8.875 -1.0625 8.875 -4.0625 8.75 C-5.0625 7.75 -5.0625 7.75 -5.3125 4.8125 C-5.23 3.801875 -5.1475 2.79125 -5.0625 1.75 C-2.0625 -0.25 -2.0625 -0.25 0 0 Z " fill="#414141" transform="translate(262.0625,340.25)"/>
<path d="M0 0 C0.99 0.66 1.98 1.32 3 2 C3.66 1.67 4.32 1.34 5 1 C4.54636829 2.58468677 4.08688548 4.16769924 3.625 5.75 C3.36976563 6.63171875 3.11453125 7.5134375 2.8515625 8.421875 C2.07158102 10.78328681 1.27896369 12.86839385 0 15 C-2.125 15.75 -2.125 15.75 -4 16 C-4.4238015 11.33818346 -2.90963085 8.20118786 -1 4 C-0.62691369 2.67723944 -0.26953585 1.34767923 0 0 Z " fill="#3B1514" transform="translate(293,140)"/>
<path d="M0 0 C0.33 0.66 0.66 1.32 1 2 C0.01 2.495 0.01 2.495 -1 3 C-1.65213292 5.02463255 -1.65213292 5.02463255 -2 7 C-3.65 7.33 -5.3 7.66 -7 8 C-7.268125 8.969375 -7.53625 9.93875 -7.8125 10.9375 C-8.204375 11.948125 -8.59625 12.95875 -9 14 C-9.99 14.33 -10.98 14.66 -12 15 C-12.99 16.485 -12.99 16.485 -14 18 C-16 21 -16 21 -19 22 C-15.8875833 12.79379901 -7.31976739 6.02335082 0 0 Z " fill="#D05959" transform="translate(204,141)"/>
<path d="M0 0 C0.33 0.66 0.66 1.32 1 2 C2.32 1.67 3.64 1.34 5 1 C5 1.66 5 2.32 5 3 C3.700625 3.226875 2.40125 3.45375 1.0625 3.6875 C-4.23534882 4.85369314 -8.38587743 7.2350154 -13 10 C-19.83333333 13.67948718 -19.83333333 13.67948718 -24 14 C-26.8125 13.0625 -26.8125 13.0625 -29 12 C-28.67 11.34 -28.34 10.68 -28 10 C-27.38253906 10.05800781 -26.76507813 10.11601562 -26.12890625 10.17578125 C-19.0678308 10.55194204 -14.80596398 8.9181352 -9 5 C-5.77208445 2.8480563 -4.71599191 2.79913557 -1 3 C-0.67 2.01 -0.34 1.02 0 0 Z " fill="#DFA738" transform="translate(276,199)"/>
<path d="M0 0 C0.97591583 3.38317487 0.85856655 5.5657338 0 9 C0.66 9 1.32 9 2 9 C0.79157144 13.43090471 -0.51668565 15.98112756 -4 19 C-5.1796875 16.95703125 -5.1796875 16.95703125 -6 14 C-5.16884854 11.35833329 -4.31681564 9.1497404 -3.125 6.6875 C-2.68220703 5.71973633 -2.68220703 5.71973633 -2.23046875 4.73242188 C-1.50265055 3.14765643 -0.75339577 1.57276688 0 0 Z " fill="#BC3735" transform="translate(290,160)"/>
<path d="M0 0 C0.66 0.33 1.32 0.66 2 1 C2 1.99 2 2.98 2 4 C1.34 4 0.68 4 0 4 C0.0825 5.0725 0.165 6.145 0.25 7.25 C0 11 0 11 -2 13.4375 C-2.99 14.2109375 -2.99 14.2109375 -4 15 C-4.66 14.67 -5.32 14.34 -6 14 C-5.34 11.03 -4.68 8.06 -4 5 C-3.34 5 -2.68 5 -2 5 C-1.855625 4.360625 -1.71125 3.72125 -1.5625 3.0625 C-1 1 -1 1 0 0 Z " fill="#C72B27" transform="translate(295,155)"/>
<path d="M0 0 C0.93423645 3.01031744 1.04449911 3.86650268 0 7 C0.66 7 1.32 7 2 7 C0.92598892 9.91517292 0.22189824 11.77810176 -2 14 C-2.99 14 -3.98 14 -5 14 C-5.33 14.66 -5.66 15.32 -6 16 C-5.59683075 9.68368172 -3.28767869 5.35006016 0 0 Z " fill="#48211C" transform="translate(290,173)"/>
<path d="M0 0 C0.33 0 0.66 0 1 0 C1.06058594 0.85464844 1.12117187 1.70929688 1.18359375 2.58984375 C1.26738281 3.69457031 1.35117188 4.79929688 1.4375 5.9375 C1.51871094 7.03964844 1.59992188 8.14179688 1.68359375 9.27734375 C1.70418084 11.91109903 1.70418084 11.91109903 3 13 C3.061875 14.11375 3.12375 15.2275 3.1875 16.375 C3.455625 17.57125 3.72375 18.7675 4 20 C6.93449408 22.01041003 6.93449408 22.01041003 10 23 C8.68 24.65 7.36 26.3 6 28 C0.1899065 18.7038504 -0.29676458 10.81542017 0 0 Z " fill="#F3D0C8" transform="translate(210,189)"/>
<path d="M0 0 C0.99 0.33 1.98 0.66 3 1 C2.39816251 3.02045442 1.72693904 5.02111039 1 7 C0.01 7.495 0.01 7.495 -1 8 C-1.65213292 10.02463255 -1.65213292 10.02463255 -2 12 C-2.66 12 -3.32 12 -4 12 C-4 12.99 -4 13.98 -4 15 C-4.66 15 -5.32 15 -6 15 C-5.83560987 8.27494919 -4.78944649 4.78944649 0 0 Z " fill="#3C1514" transform="translate(300,157)"/>
<path d="M0 0 C5.875 2.75 5.875 2.75 7 5 C5.02 7.97 5.02 7.97 3 11 C2.34 10.34 1.68 9.68 1 9 C1.33 8.34 1.66 7.68 2 7 C0.68 6.67 -0.64 6.34 -2 6 C-1.125 1.125 -1.125 1.125 0 0 Z " fill="#513B3A" transform="translate(306,142)"/>
<path d="M0 0 C9.82568807 -0.57798165 9.82568807 -0.57798165 14 3 C16.45600924 5.71453653 17.94533295 7.62649045 18.09375 11.35546875 C17.8882806 13.66333037 17.66398355 15.77892827 17 18 C16.34 18.33 15.68 18.66 15 19 C15.185625 17.7625 15.37125 16.525 15.5625 15.25 C16.12738037 11.02954496 16.12738037 11.02954496 15 7 C14.01 6.67 13.02 6.34 12 6 C11.67 4.68 11.34 3.36 11 2 C7.37 1.67 3.74 1.34 0 1 C0 0.67 0 0.34 0 0 Z " fill="#DBA25E" transform="translate(224,209)"/>
<path d="M0 0 C0.33 0.66 0.66 1.32 1 2 C3.02463255 2.65213292 3.02463255 2.65213292 5 3 C5.5625 4.9375 5.5625 4.9375 6 7 C5 8 5 8 3.15234375 8.09765625 C1.1015625 8.06510417 -0.94921875 8.03255208 -3 8 C-2.45276317 4.62537285 -1.9451 2.91765 0 0 Z " fill="#E6BF59" transform="translate(284,194)"/>
<path d="M0 0 C0.66 0 1.32 0 2 0 C2.0544207 2.68777802 2.09387266 5.37443212 2.125 8.0625 C2.14175781 8.81466797 2.15851563 9.56683594 2.17578125 10.34179688 C2.21865121 15.29327709 1.58399375 19.30414451 0 24 C-0.66 24 -1.32 24 -2 24 C-2 22.02 -2 20.04 -2 18 C-2.66 17.67 -3.32 17.34 -4 17 C-2.68 16.67 -1.36 16.34 0 16 C0 15.18015625 0 14.3603125 0 13.515625 C0 9.01041667 0 4.50520833 0 0 Z " fill="#E89865" transform="translate(289,185)"/>
<path d="M0 0 C1.65 0 3.3 0 5 0 C4.01 0.33 3.02 0.66 2 1 C2.3609375 1.65484375 2.721875 2.3096875 3.09375 2.984375 C6.77508537 10.22433456 7.63353803 15.93294914 7 24 C6.67 24 6.34 24 6 24 C5.94392578 22.86111328 5.94392578 22.86111328 5.88671875 21.69921875 C5.78810547 20.20841797 5.78810547 20.20841797 5.6875 18.6875 C5.60048828 17.20830078 5.60048828 17.20830078 5.51171875 15.69921875 C4.92807604 12.62061482 4.18157901 12.09253497 2 10 C1.26953125 7.51953125 1.26953125 7.51953125 0.8125 4.8125 C0.65394531 3.91144531 0.49539062 3.01039063 0.33203125 2.08203125 C0.22246094 1.39496094 0.11289063 0.70789063 0 0 Z " fill="#EEDFBB" transform="translate(241,203)"/>
<path d="M0 0 C0.99 0.33 1.98 0.66 3 1 C2.59007812 1.64066406 2.18015625 2.28132812 1.7578125 2.94140625 C-1.33815426 7.91124762 -3.75372504 12.26713518 -5 18 C-5.33 18 -5.66 18 -6 18 C-6 14.7 -6 11.4 -6 8 C-5.34 7.67 -4.68 7.34 -4 7 C-3.34444881 4.47266765 -3.34444881 4.47266765 -3 2 C-2.01 2 -1.02 2 0 2 C0 1.34 0 0.68 0 0 Z " fill="#D26866" transform="translate(217,170)"/>
<path d="M0 0 C0.99 0 1.98 0 3 0 C3.66 2.97 4.32 5.94 5 9 C5.66 9 6.32 9 7 9 C8.65 11.97 10.3 14.94 12 18 C11.34 18.66 10.68 19.32 10 20 C8.51494131 17.41989804 7.03682689 14.83622441 5.5625 12.25 C5.14162109 11.52039063 4.72074219 10.79078125 4.28710938 10.0390625 C3.68286133 8.97558594 3.68286133 8.97558594 3.06640625 7.890625 C2.69459229 7.24125977 2.32277832 6.59189453 1.93969727 5.92285156 C0.9812968 3.96172866 0.4496957 2.13035565 0 0 Z " fill="#CF5D5B" transform="translate(184,241)"/>
<path d="M0 0 C1.07841991 3.44264817 1.00581472 6.47381623 0.875 10.0625 C0.80241955 16.47861219 1.96135402 21.94473606 4 28 C3.34 28.33 2.68 28.66 2 29 C1.67 27.02 1.34 25.04 1 23 C0.34 23 -0.32 23 -1 23 C-1.02902429 19.72918529 -1.04680684 16.4584037 -1.0625 13.1875 C-1.07087891 12.25873047 -1.07925781 11.32996094 -1.08789062 10.37304688 C-1.09111328 9.48037109 -1.09433594 8.58769531 -1.09765625 7.66796875 C-1.10289307 6.84578857 -1.10812988 6.0236084 -1.11352539 5.17651367 C-1 3 -1 3 0 0 Z " fill="#BC3936" transform="translate(210,185)"/>
<path d="M0 0 C0.33 0 0.66 0 1 0 C1 1.65 1 3.3 1 5 C1.99 5 2.98 5 4 5 C4 3.35 4 1.7 4 0 C4.99 0.66 5.98 1.32 7 2 C6.01 4.64 5.02 7.28 4 10 C1 7 -2 4 -5 1 C-2.525 1.495 -2.525 1.495 0 2 C0 1.34 0 0.68 0 0 Z " fill="#CD5E5A" transform="translate(277,161)"/>
<path d="M0 0 C-1.66278555 0.71262238 -3.32610545 1.42402538 -4.9921875 2.12890625 C-6.29968625 2.69616738 -7.59754232 3.28637401 -8.8828125 3.90234375 C-12.42948256 5.56820393 -14.28100945 6.19915164 -18 5 C-16.23002526 4.18563132 -14.45898848 3.3735706 -12.6875 2.5625 C-11.70136719 2.11003906 -10.71523437 1.65757812 -9.69921875 1.19140625 C-5.91942643 -0.4769536 -3.94996412 -1.22585093 0 0 Z " fill="#D06463" transform="translate(231,130)"/>
<path d="M0 0 C0.99 0.33 1.98 0.66 3 1 C1.63629701 3.99220268 0.05091917 6.29026529 -2.125 8.75 C-2.93324219 9.67039062 -2.93324219 9.67039062 -3.7578125 10.609375 C-4.16773438 11.06828125 -4.57765625 11.5271875 -5 12 C-7 9 -7 9 -6.625 6.8125 C-6.41875 6.214375 -6.2125 5.61625 -6 5 C-4.02 4.67 -2.04 4.34 0 4 C0 2.68 0 1.36 0 0 Z " fill="#D05854" transform="translate(288,277)"/>
<path d="M0 0 C-1 3 -1 3 -3.1875 4.16796875 C-9.42880694 6.43044252 -14.36503019 7.43507999 -21 7 C-21 6.67 -21 6.34 -21 6 C-20.21496094 5.81824219 -19.42992187 5.63648438 -18.62109375 5.44921875 C-13.00394574 4.10523855 -5.56931178 0 0 0 Z " fill="#C9391E" transform="translate(273,230)"/>
<path d="M0 0 C0.66 0.33 1.32 0.66 2 1 C2.30372936 9.00945568 2.50848663 15.69065285 -1 23 C-2.32 22.67 -3.64 22.34 -5 22 C-4.34 22 -3.68 22 -3 22 C-0.81982238 16.62222855 0.11616561 12.6620515 0.0625 6.8125 C0.05347656 5.54019531 0.04445312 4.26789063 0.03515625 2.95703125 C0.02355469 1.98121094 0.01195312 1.00539062 0 0 Z " fill="#E0B561" transform="translate(247,213)"/>
<path d="M0 0 C0 0.99 0 1.98 0 3 C-0.969375 3.45375 -1.93875 3.9075 -2.9375 4.375 C-6.07079582 5.65786221 -6.07079582 5.65786221 -7 8 C-9.34613181 9.53712084 -10.44563145 10.09239476 -13.25 9.625 C-13.8275 9.41875 -14.405 9.2125 -15 9 C-10.16132855 5.69554145 -5.24880896 2.62440448 0 0 Z " fill="#E9CF84" transform="translate(271,195)"/>
<path d="M0 0 C4.62 0.99 9.24 1.98 14 3 C14 3.33 14 3.66 14 4 C13.22914063 4.06058594 12.45828125 4.12117187 11.6640625 4.18359375 C10.66117188 4.26738281 9.65828125 4.35117188 8.625 4.4375 C7.12839844 4.55931641 7.12839844 4.55931641 5.6015625 4.68359375 C3.02072387 4.84965626 3.02072387 4.84965626 1 6 C0.01 5.67 -0.98 5.34 -2 5 C-2 4.34 -2 3.68 -2 3 C-1.34 2.67 -0.68 2.34 0 2 C0 1.34 0 0.68 0 0 Z " fill="#C63327" transform="translate(235,233)"/>
<path d="M0 0 C0.99 0.33 1.98 0.66 3 1 C0.36 4.63 -2.28 8.26 -5 12 C-5.33 10.68 -5.66 9.36 -6 8 C-5.34 7.01 -4.68 6.02 -4 5 C-3.34 5 -2.68 5 -2 5 C-1.855625 4.360625 -1.71125 3.72125 -1.5625 3.0625 C-1 1 -1 1 0 0 Z " fill="#D06362" transform="translate(303,259)"/>
<path d="M0 0 C0.66 0.33 1.32 0.66 2 1 C0.625 2.5 0.625 2.5 -1 4 C-1.66 4 -2.32 4 -3 4 C-3.33 5.65 -3.66 7.3 -4 9 C-4.66 8.67 -5.32 8.34 -6 8 C-6 7.34 -6 6.68 -6 6 C-8.64 6 -11.28 6 -14 6 C-14 5.67 -14 5.34 -14 5 C-11.36 5 -8.72 5 -6 5 C-6 4.34 -6 3.68 -6 3 C-4.03533587 1.93224776 -2.03144641 0.93446535 0 0 Z " fill="#E2AD36" transform="translate(262,223)"/>
<path d="M0 0 C3.465 1.485 3.465 1.485 7 3 C7 3.99 7 4.98 7 6 C5.88625 5.814375 4.7725 5.62875 3.625 5.4375 C0.17431139 4.68319343 0.17431139 4.68319343 -2 6 C-1.34 4.02 -0.68 2.04 0 0 Z " fill="#645353" transform="translate(296,128)"/>
<path d="M0 0 C1.32 0 2.64 0 4 0 C4 0.99 4 1.98 4 3 C5.32 2.67 6.64 2.34 8 2 C8 3.65 8 5.3 8 7 C8.66 7.33 9.32 7.66 10 8 C7 8 7 8 5.17578125 6.50390625 C4.56089844 5.86324219 3.94601563 5.22257812 3.3125 4.5625 C2.68988281 3.92441406 2.06726563 3.28632813 1.42578125 2.62890625 C0 1 0 1 0 0 Z " fill="#CC4646" transform="translate(220,291)"/>
<path d="M0 0 C0.33 0.66 0.66 1.32 1 2 C-4.91684902 11.48796499 -4.91684902 11.48796499 -9.4375 13.625 C-10.7059375 13.810625 -10.7059375 13.810625 -12 14 C-11.319375 13.360625 -10.63875 12.72125 -9.9375 12.0625 C-6.22657527 8.37290243 -3.1498651 4.16653626 0 0 Z " fill="#C93B1B" transform="translate(285,216)"/>
<path d="M0 0 C-0.99 0.33 -1.98 0.66 -3 1 C-2.67 1.99 -2.34 2.98 -2 4 C-4.76264289 4.59732819 -7.16032769 5 -10 5 C-9 2 -9 2 -6.125 0.25 C-3 -1 -3 -1 0 0 Z " fill="#EFB242" transform="translate(275,226)"/>
<path d="M0 0 C0.66 0.33 1.32 0.66 2 1 C1.319375 1.53625 0.63875 2.0725 -0.0625 2.625 C-2.36528438 4.88767161 -2.36528438 4.88767161 -1.75 8.0625 C-1.5025 9.031875 -1.255 10.00125 -1 11 C-1 11.99 -1 12.98 -1 14 C-2.65 12.02 -4.3 10.04 -6 8 C-4.26440562 4.942048 -2.61527381 2.36620011 0 0 Z " fill="#E79C5E" transform="translate(222,210)"/>
<path d="M0 0 C1.32 0.66 2.64 1.32 4 2 C2.625 4 2.625 4 1 6 C0.34 6 -0.32 6 -1 6 C-1.33 6.99 -1.66 7.98 -2 9 C-2.66 7.68 -3.32 6.36 -4 5 C-3.34 5 -2.68 5 -2 5 C-2 4.34 -2 3.68 -2 3 C-1.34 3 -0.68 3 0 3 C0 2.01 0 1.02 0 0 Z " fill="#D45455" transform="translate(223,161)"/>
<path d="M0 0 C2.4375 0.8125 2.4375 0.8125 5 2 C5.33 2.99 5.66 3.98 6 5 C6.66 5 7.32 5 8 5 C8.33 6.65 8.66 8.3 9 10 C5.06451569 6.93906776 2.31883213 4.50884026 0 0 Z " fill="#D26262" transform="translate(207,277)"/>
<path d="M0 0 C2.31 0 4.62 0 7 0 C4.63379989 2.61527381 2.057952 4.26440562 -1 6 C-1.66 5.34 -2.32 4.68 -3 4 C-2.34 4 -1.68 4 -1 4 C-0.67 2.68 -0.34 1.36 0 0 Z " fill="#EAB83D" transform="translate(261,203)"/>
<path d="M0 0 C4.29 0.33 8.58 0.66 13 1 C9.75366476 3.1642235 8.75698557 3.37569856 5 3 C4.01 2.34 3.02 1.68 2 1 C1.67 1.99 1.34 2.98 1 4 C0.67 2.68 0.34 1.36 0 0 Z " fill="#E2C76F" transform="translate(243,204)"/>
<path d="M0 0 C1.65 0.33 3.3 0.66 5 1 C4.39816251 3.02045442 3.72693904 5.02111039 3 7 C2.01 7.495 2.01 7.495 1 8 C0.67 7.01 0.34 6.02 0 5 C-0.66 5 -1.32 5 -2 5 C-1.34 3.35 -0.68 1.7 0 0 Z " fill="#655350" transform="translate(283,186)"/>
<path d="M0 0 C1.10868317 3.32604951 1.54177532 6.53058454 2 10 C1.01 10 0.02 10 -1 10 C-2.1875 7.8125 -2.1875 7.8125 -3 5 C-1.625 2.1875 -1.625 2.1875 0 0 Z " fill="#C12D2B" transform="translate(293,178)"/>
<path d="M0 0 C0.99 0 1.98 0 3 0 C2.67 2.31 2.34 4.62 2 7 C1.01 7 0.02 7 -1 7 C-0.67 4.69 -0.34 2.38 0 0 Z " fill="#503A32" transform="translate(273,189)"/>
<path d="M0 0 C0.33 0.99 0.66 1.98 1 3 C1.66 3 2.32 3 3 3 C3 4.98 3 6.96 3 9 C2.34 9 1.68 9 1 9 C1 8.34 1 7.68 1 7 C0.34 7 -0.32 7 -1 7 C-0.67 4.69 -0.34 2.38 0 0 Z " fill="#452524" transform="translate(281,168)"/>
<path d="M0 0 C0.66 0.99 1.32 1.98 2 3 C1.34 3 0.68 3 0 3 C0 3.66 0 4.32 0 5 C1.32 5.66 2.64 6.32 4 7 C1 7 1 7 -1.6875 4.5 C-2.450625 3.675 -3.21375 2.85 -4 2 C-2.68 1.34 -1.36 0.68 0 0 Z " fill="#D75D5D" transform="translate(237,302)"/>
<path d="M0 0 C0.66 0 1.32 0 2 0 C2 0.66 2 1.32 2 2 C2.99 2.33 3.98 2.66 5 3 C5 3.66 5 4.32 5 5 C6.45833358 6.62514468 6.45833358 6.62514468 8 8 C7.67 8.99 7.34 9.98 7 11 C5.83051998 9.35616456 4.6644855 7.70987731 3.5 6.0625 C2.8503125 5.14597656 2.200625 4.22945313 1.53125 3.28515625 C0 1 0 1 0 0 Z " fill="#D97473" transform="translate(195,261)"/>
<path d="M0 0 C0.99 0 1.98 0 3 0 C2.67 2.31 2.34 4.62 2 7 C1.01 7 0.02 7 -1 7 C-0.67 4.69 -0.34 2.38 0 0 Z " fill="#3E1414" transform="translate(291,173)"/>
<path d="M0 0 C0.33 0 0.66 0 1 0 C1.36923077 5.53846154 1.36923077 5.53846154 -0.5 7.875 C-1.2425 8.431875 -1.2425 8.431875 -2 9 C-2.6875 7.3125 -2.6875 7.3125 -3 5 C-1.625 2.25 -1.625 2.25 0 0 Z " fill="#D52827" transform="translate(292,161)"/>
<path d="M0 0 C0.33 0.99 0.66 1.98 1 3 C1.66 3 2.32 3 3 3 C2.67 4.32 2.34 5.64 2 7 C0.68 6.67 -0.64 6.34 -2 6 C-1.34 4.02 -0.68 2.04 0 0 Z " fill="#D42926" transform="translate(298,146)"/>
<path d="M0 0 C0.33 0.99 0.66 1.98 1 3 C1.99 3 2.98 3 4 3 C3.34 5.31 2.68 7.62 2 10 C1.67 10 1.34 10 1 10 C1 8.35 1 6.7 1 5 C0.34 5 -0.32 5 -1 5 C-0.67 3.35 -0.34 1.7 0 0 Z " fill="#746362" transform="translate(275,184)"/>
<path d="M0 0 C2.15377564 2.62198774 3.40072174 4.64404172 4 8 C2.68 7.67 1.36 7.34 0 7 C-1.125 2.25 -1.125 2.25 0 0 Z " fill="#D15957" transform="translate(317,168)"/>
<path d="M0 0 C1.32 0.66 2.64 1.32 4 2 C2.68 4.31 1.36 6.62 0 9 C-0.66 8.34 -1.32 7.68 -2 7 C-1.67 6.34 -1.34 5.68 -1 5 C-0.34 5 0.32 5 1 5 C0.67 3.35 0.34 1.7 0 0 Z " fill="#6C5D5B" transform="translate(309,144)"/>
<path d="M0 0 C1.98 0.99 3.96 1.98 6 3 C5.34 4.65 4.68 6.3 4 8 C3.67 7.01 3.34 6.02 3 5 C2.34 5 1.68 5 1 5 C0.67 3.35 0.34 1.7 0 0 Z " fill="#C65D5A" transform="translate(298,144)"/>
<path d="M0 0 C0.33 0.66 0.66 1.32 1 2 C1.66 2 2.32 2 3 2 C3.625 4.375 3.625 4.375 4 7 C3.34 7.66 2.68 8.32 2 9 C1.67 7.35 1.34 5.7 1 4 C0.34 4 -0.32 4 -1 4 C-0.67 2.68 -0.34 1.36 0 0 Z " fill="#6C5658" transform="translate(279,173)"/>
<path d="M0 0 C0.8125 1.6875 0.8125 1.6875 1 4 C-1.4375 6.75 -1.4375 6.75 -4 9 C-4 5.00095031 -2.27413033 3.19799578 0 0 Z " fill="#D56C6B" transform="translate(190,154)"/>
<path d="M0 0 C0.99 0 1.98 0 3 0 C3 1.32 3 2.64 3 4 C2.34 4 1.68 4 1 4 C0.67 4.99 0.34 5.98 0 7 C-0.66 6.67 -1.32 6.34 -2 6 C-2 5.01 -2 4.02 -2 3 C-1.34 3 -0.68 3 0 3 C0 2.01 0 1.02 0 0 Z " fill="#321715" transform="translate(305,149)"/>
<path d="M0 0 C0 0.99 0 1.98 0 3 C-2.35438733 4.42944945 -3.48032433 5.08661261 -6.25 4.625 C-6.8275 4.41875 -7.405 4.2125 -8 4 C-2.25 0 -2.25 0 0 0 Z " fill="#D15E5F" transform="translate(213,136)"/>
<path d="M0 0 C0.66 0 1.32 0 2 0 C1.49701212 4.40114397 -0.08772731 6.71195019 -3 10 C-2.67 8.02 -2.34 6.04 -2 4 C-1.34 4 -0.68 4 0 4 C0 2.68 0 1.36 0 0 Z " fill="#CF635D" transform="translate(311,245)"/>
<path d="M0 0 C2.75 -0.25 2.75 -0.25 6 0 C8.375 2 8.375 2 10 4 C8.68 4 7.36 4 6 4 C5.34 3.34 4.68 2.68 4 2 C2.68252676 1.30251417 1.35085807 0.63040043 0 0 Z " fill="#C93A38" transform="translate(260,155)"/>
<path d="M0 0 C0.99 0.33 1.98 0.66 3 1 C2.25 2.9375 2.25 2.9375 1 5 C-1.125 5.75 -1.125 5.75 -3 6 C-2.42655063 3.13275314 -2.1385485 2.1385485 0 0 Z " fill="#CD4343" transform="translate(194,150)"/>
<path d="M0 0 C0.99 0 1.98 0 3 0 C2.1875 1.9375 2.1875 1.9375 1 4 C0.01 4.33 -0.98 4.66 -2 5 C-2.99 4.01 -3.98 3.02 -5 2 C-3.35 2 -1.7 2 0 2 C0 1.34 0 0.68 0 0 Z " fill="#CE6F67" transform="translate(251,313)"/>
<path d="M0 0 C3 1 3 1 4 3 C4.039992 4.99960012 4.04346799 7.00047242 4 9 C1.49701566 6.06171403 0.53069061 3.82097239 0 0 Z " fill="#D26062" transform="translate(180,232)"/>
<path d="M0 0 C1.98 0 3.96 0 6 0 C6.33 1.32 6.66 2.64 7 4 C5.68 4 4.36 4 3 4 C1.25 2 1.25 2 0 0 Z " fill="#F39451" transform="translate(222,224)"/>
<path d="M0 0 C0.33 0.66 0.66 1.32 1 2 C1.99 2 2.98 2 4 2 C4 3.32 4 4.64 4 6 C2.68 6 1.36 6 0 6 C0 4.02 0 2.04 0 0 Z " fill="#513E41" transform="translate(276,181)"/>
<path d="M0 0 C5.75 1.75 5.75 1.75 8 4 C6.02 4.99 6.02 4.99 4 6 C0 1.125 0 1.125 0 0 Z " fill="#D96A6A" transform="translate(281,133)"/>
<path d="M0 0 C0.99 0.33 1.98 0.66 3 1 C3 3.66666667 3 6.33333333 3 9 C0.90250005 6.64031256 0.03094296 5.45383006 -0.1875 2.25 C-0.125625 1.5075 -0.06375 0.765 0 0 Z " fill="#E1BB4A" transform="translate(245,205)"/>
</svg>
